<svg xmlns="http://www.w3.org/2000/svg" viewBox="0 0 417.01 410.59"><defs><style>.cls-1{fill:#fefefe;}.cls-1,.cls-2,.cls-3,.cls-4,.cls-5{fill-rule:evenodd;}.cls-2{fill:#fddecb;}.cls-3{fill:#f9bcae;}.cls-5{fill:#030403;}</style></defs><title>Asset 1</title><g id="Layer_2" data-name="Layer 2"><g id="_45" data-name="45"><path class="cls-1" d="M0,229.89a67.59,67.59,0,0,1,26.6,5.26,69.1,69.1,0,0,1,39.78,43.47,69.46,69.46,0,0,1,100.89,48.74,47.48,47.48,0,0,1,29.5,2.1,85.32,85.32,0,0,1,8.43,4.48,54.94,54.94,0,0,1,27.39,3.69,52.7,52.7,0,0,1,28.72,69c-.53,1.32-1.05,2.64-1.58,3.95H0Z"/><path class="cls-1" d="M0,365.55a80.88,80.88,0,0,1,35.56-32.93,77.27,77.27,0,0,1,4.74-18.17c14.75-35.56,55.32-52.69,90.88-37.93A69.09,69.09,0,0,1,171,320a68.9,68.9,0,0,1,59-2.9,69.69,69.69,0,0,1,42.14,51.63,46.9,46.9,0,0,1,29.25,2.11,86.4,86.4,0,0,1,8.43,4.47,58.07,58.07,0,0,1,27.39,3.43,53,53,0,0,1,29.77,31.87H0Z"/><path class="cls-1" d="M21.34,367.13A82.6,82.6,0,0,1,0,371.61V162.19a70,70,0,0,1,55.05-1.05A69.75,69.75,0,0,1,94.83,204.6a69.47,69.47,0,0,1,100.89,48.74,46.47,46.47,0,0,1,37.93,6.84,51.08,51.08,0,0,1,27.13,3.43A53.32,53.32,0,0,1,279,349.49a53.37,53.37,0,0,1,11.32,57.42,23.4,23.4,0,0,1-1.84,3.68H49a57.75,57.75,0,0,1-2.11-24.23,23.33,23.33,0,0,1-3.94-1.31,48.53,48.53,0,0,1-21.6-17.92Z"/><path class="cls-1" d="M207,311.55a54.66,54.66,0,0,1-39.77-1.05A55.37,55.37,0,0,1,137,238.32a56,56,0,0,1,27.65-29A50.49,50.49,0,0,1,167.8,197,47.58,47.58,0,0,1,230,170.88a46.77,46.77,0,0,1,27.13,29.77,47.41,47.41,0,0,1,69,33.19,31.13,31.13,0,0,1,20,1.58,24.87,24.87,0,0,1,5.79,3.16A33.42,33.42,0,0,1,370.63,241c18.43,7.38,27.13,28.72,19.75,47.15a34.28,34.28,0,0,1-7.63,11.33,36.21,36.21,0,0,1-39.52,59,47.74,47.74,0,0,1-7.11-4,3.84,3.84,0,0,1-.53,1.59,36.16,36.16,0,0,1-47.15,19.75A38.85,38.85,0,0,1,272.9,364a35.1,35.1,0,0,1-26.34-.53,36,36,0,0,1-22.13-38.72,11.11,11.11,0,0,1-2.63-1.05A32.16,32.16,0,0,1,207,311.55Z"/><path class="cls-1" d="M124.6,219.35a55.34,55.34,0,0,1-42.15-102.2,50,50,0,0,1,3.16-12.38,47.62,47.62,0,0,1,89.29,3.68,47.74,47.74,0,0,1,40.31-1.84,46.75,46.75,0,0,1,28.45,35.3,30.82,30.82,0,0,1,20,1.32,20.63,20.63,0,0,1,5.81,3.15,35.18,35.18,0,0,1,18.69,2.38,36.14,36.14,0,0,1,19.76,47.15,34.83,34.83,0,0,1-7.37,11.59,36.14,36.14,0,0,1-39.51,58.74,30.13,30.13,0,0,1-7.12-3.69c-.26.53-.26,1.06-.53,1.58A36.56,36.56,0,0,1,206,283.89a35,35,0,0,1-15.28-12.11,37.16,37.16,0,0,1-26.6-.27,36.34,36.34,0,0,1-21.87-39c-1.05-.27-1.84-.53-2.9-.79a32.57,32.57,0,0,1-14.74-12.39Z"/><path class="cls-1" d="M305.83,289.68a56.17,56.17,0,0,1-17.66,35.83c-22.12,20.81-57.16,19.49-78-2.9a55.2,55.2,0,0,1-15-37.14,72.43,72.43,0,0,1-10-8.16,47.51,47.51,0,0,1,2.63-67.17A46.43,46.43,0,0,1,226,197.75a47.79,47.79,0,0,1,15-37.4A48.42,48.42,0,0,1,285.28,149a30.16,30.16,0,0,1,9.48-17.39,24.78,24.78,0,0,1,5.27-3.95,36.82,36.82,0,0,1,10-16.06,36.17,36.17,0,0,1,51.1,1.84,32.07,32.07,0,0,1,7.38,11.59,36.22,36.22,0,0,1,36.88,60.59,36.86,36.86,0,0,1-6.32,4.74c.26.53.78.79,1.05,1.31a36.17,36.17,0,0,1-19.23,60.07,36.64,36.64,0,0,1-11.33,24,36.16,36.16,0,0,1-44.51,3.69,15.66,15.66,0,0,1-2.12,2.11,30.54,30.54,0,0,1-17.11,8.16Z"/><path class="cls-1" d="M199.93,159a56,56,0,0,1-39.78-.79,55.52,55.52,0,0,1-2.36-101.42A35.32,35.32,0,0,1,161,44.45a47.62,47.62,0,0,1,89.29,3.68,47.15,47.15,0,0,1,40-1.84A46.51,46.51,0,0,1,319,81.58a31,31,0,0,1,20,1.32,20.68,20.68,0,0,1,5.79,3.16,35.26,35.26,0,0,1,18.71,2.37,36.17,36.17,0,0,1,19.75,47.16,35,35,0,0,1-7.37,11.58,36.15,36.15,0,0,1-39.52,58.75,30.43,30.43,0,0,1-7.11-3.69,3.82,3.82,0,0,0-.52,1.58,36.6,36.6,0,0,1-47.42,19.76,35,35,0,0,1-15.28-12.12,37,37,0,0,1-26.61-.26,36.17,36.17,0,0,1-21.86-39c-1.06-.27-2.1-.53-2.9-.79A32.57,32.57,0,0,1,199.93,159Z"/><path class="cls-1" d="M45.83,410.59C12.64,388.73-1.85,345.8,14,307.6A83.17,83.17,0,0,1,56.1,263.08a69.88,69.88,0,0,1,5-19,72.58,72.58,0,0,1,136.45,5.54,72.66,72.66,0,0,1,105.37,51.1,47.13,47.13,0,0,1,30.55,2.11,47.94,47.94,0,0,1,9,4.74,53.46,53.46,0,0,1,28.45,3.69,55.24,55.24,0,0,1,30.29,72.17,53.83,53.83,0,0,1-11.59,17.65,52.66,52.66,0,0,1,7.64,9.48Z"/><path class="cls-2" d="M176,85.8s-27.92,25.29-84,12.65C35.56,85.8,94,205.65,192,116.36,289.76,26.8,176,85.8,176,85.8Z"/><path class="cls-3" d="M175.43,101.34s-35.3,18.18-78.49,8.17c-43.47-10,12.11,66.9,78.49,9.22,75.87-65.85,0-17.39,0-17.39Z"/><path class="cls-2" d="M377.21,195.12s-8.95,35.82,27.92,78.5c36.88,42.94-93.77,47.68-61.9-78.24,32.14-125.91,34-.26,34-.26Z"/><path class="cls-3" d="M364.31,203.29s.52,38.72,29.23,71.64-63.48,20.29-44.25-63.74c21.86-96.15,15-7.9,15-7.9Z"/><path class="cls-2" d="M202.83,75.79c-.79,2.1-46.1,37.93-84.82,102.47C47.68,296,224.7,443.52,324.27,306.29c39.51-54.53,46.62-122.5,46.09-163.32-.52-51.11-113.27-129.35-167.53-67.18Z"/><path class="cls-1" d="M248.66,193.27A41,41,0,1,1,176.75,154a41,41,0,1,1,71.91,39.24Z"/><path class="cls-4" d="M225.49,180.63a14.91,14.91,0,0,1-19.76,5.8,14.56,14.56,0,1,1,14-25.56c7.12,3.69,9.49,12.65,5.81,19.76Z"/><path class="cls-1" d="M327.69,236.47a41,41,0,1,1-16.33-55.84,41.11,41.11,0,0,1,16.33,55.84Z"/><path class="cls-4" d="M304.51,223.83a14.9,14.9,0,0,1-19.75,5.8,14.56,14.56,0,0,1,13.95-25.56c7.12,3.7,9.48,12.64,5.8,19.76Z"/><path class="cls-5" d="M232.59,286.79s-1.05.26-2.63.79c-.79.26-2.11.26-3.16.52h-4a15.06,15.06,0,0,1-4.75-.26,38,38,0,0,1-5-.79,9.46,9.46,0,0,0-2.63-.53c-.79-.26-1.85-.79-2.64-1-1.84-.53-3.68-1.32-5.53-1.85-1.58-1-3.42-1.83-5-2.89a47.17,47.17,0,0,1-4.48-3.16,42.79,42.79,0,0,1-3.69-3.43,31.4,31.4,0,0,1-2.63-3.68c-.27-.53-.79-1.32-1.06-1.85s-.53-1.05-.79-1.58a19.08,19.08,0,0,1-1.05-2.9,17.77,17.77,0,0,0-.53-2.63v2.63a6.68,6.68,0,0,0,.53,3.17c0,.79.26,1.31.26,2.1a6.7,6.7,0,0,0,1,1.85,18.34,18.34,0,0,0,2.38,4.47,51.54,51.54,0,0,0,3.69,4.22c1.58,1.06,2.89,2.64,4.74,3.68,1.58,1.06,3.42,1.85,5.27,2.9a20.09,20.09,0,0,0,3.68,1.32l.26.26h0a18.6,18.6,0,0,0-.78,2.11,20.18,20.18,0,0,0-1.32,4.74,21.62,21.62,0,0,0-.53,6.07,71.86,71.86,0,0,0,1.06,7.37,32.61,32.61,0,0,0,3.16,7.9c2.89,5,7.37,10,13.16,12.64a29.19,29.19,0,0,0,9,2.64,35.63,35.63,0,0,0,9.21-.27,55.72,55.72,0,0,0,7.91-2.37c1.31-.53,2.37-1.32,3.42-1.84a32,32,0,0,0,3.16-1.58c2.11-1.32,3.69-2.37,5.27-3.42a34.68,34.68,0,0,1,3.69-3.17l2.9-2.89s-1.32.79-3.43,2.37c-1,.79-2.37,1.58-3.95,2.63-1.58.79-3.43,1.85-5.27,2.9a16,16,0,0,0-3.16,1.32c-1.05.53-2.37.79-3.42,1.32a63.71,63.71,0,0,1-7.64,1.83,41.3,41.3,0,0,1-8.17,0A28.77,28.77,0,0,1,221,326a27.39,27.39,0,0,1-11.86-11.33,23.89,23.89,0,0,1-3.42-6.85,35.33,35.33,0,0,1-1.58-6.84,47.66,47.66,0,0,1-.27-6.07c.27-1.84.53-3.42.79-4.47a15.49,15.49,0,0,1,.53-2.38c.53.27,1.05.27,1.58.53,1.05.26,1.84.53,2.9.79s1.84.26,2.9.53c1.84.26,3.69.26,5.52.53,1.85-.27,3.43,0,5-.27a17.64,17.64,0,0,0,4-1,8.93,8.93,0,0,0,3.15-1.06c1.32-.79,2.37-1.31,2.37-1.31Zm-27.66,1.31c-.26.53-.78,1.06-1.31,1.85a34.46,34.46,0,0,1-3.16,3.69,42.08,42.08,0,0,1-5,3.69,31.48,31.48,0,0,1-6.85,2.9,28.19,28.19,0,0,1-8.43,1.84,31,31,0,0,1-17.64-4.48,26.37,26.37,0,0,1-7.12-6.06,29.48,29.48,0,0,1-4.48-7.91,30.25,30.25,0,0,1-2.37-7.9,20.47,20.47,0,0,1-.52-3.94,15.31,15.31,0,0,1-.26-3.43A47.24,47.24,0,0,1,148,262c.26-1.85.26-3.42.52-4.74.53-2.37.79-4,.79-4s0,1.58-.26,4.2V262c.26,1.84.26,4,.53,6.06.26,1.31.26,2.37.52,3.42.27,1.32.53,2.37.79,3.69a27.78,27.78,0,0,0,2.64,7.38,37.08,37.08,0,0,0,4.22,6.84,32.84,32.84,0,0,0,6.58,5.53,28.28,28.28,0,0,0,15.8,4,36.17,36.17,0,0,0,7.64-.79,37.72,37.72,0,0,0,6.59-2.38,44.69,44.69,0,0,0,5.27-3.16,19.69,19.69,0,0,0,3.42-3.16c.53-.53,1.06-1.05,1.58-1.58"/><path class="cls-1" d="M271.06,91.33a44.71,44.71,0,1,1-24.24-58.22,44.62,44.62,0,0,1,24.24,58.22Z"/><path class="cls-1" d="M284.23,52.88A38.33,38.33,0,0,1,234.17,74c-19.49-8.17-29-30.56-20.8-50.05a38.3,38.3,0,0,1,50-21.08c19.5,8.17,29,30.56,20.82,50.06Z"/><path class="cls-1" d="M393,97.66a29.35,29.35,0,0,1-54.27-22.39c6.32-14.76,23.45-22.14,38.19-15.81A29.29,29.29,0,0,1,393,97.66Z"/><path class="cls-1" d="M393.28,138.48a29.3,29.3,0,1,1-16.07-38.19,29,29,0,0,1,16.07,38.19Z"/><path class="cls-1" d="M348.76,152.44a29.18,29.18,0,1,1-54-22.12A29,29,0,0,1,333,114.51c14.75,6.06,22.12,23.18,15.8,37.93Z"/><path class="cls-1" d="M315.05,142.44a29.3,29.3,0,0,1-54.27-22.13,29.31,29.31,0,0,1,54.27,22.13Z"/><path class="cls-1" d="M338.75,75.27A38.31,38.31,0,0,1,288.7,96.34c-19.49-8.17-29-30.56-20.81-50.05a38.3,38.3,0,0,1,50.05-21.07c19.49,8.16,29,30.55,20.81,50.05Z"/><path class="cls-1" d="M275.79,94.76A25.57,25.57,0,0,1,242.08,109,25.93,25.93,0,1,1,261.84,61a25.76,25.76,0,0,1,14,33.72Z"/><path class="cls-1" d="M290.55,112.14a25.67,25.67,0,0,1-33.72,14.22,25.88,25.88,0,1,1,33.72-14.22Z"/><path class="cls-1" d="M325.32,118.73A25.68,25.68,0,0,1,291.6,133,25.88,25.88,0,1,1,311.09,85a25.67,25.67,0,0,1,14.23,33.72Z"/><path class="cls-1" d="M343.49,99.23a26.11,26.11,0,0,1-33.71,14.23,25.88,25.88,0,1,1,19.49-47.94,26.1,26.1,0,0,1,14.22,33.71Z"/><path class="cls-1" d="M371.42,88.7a25.93,25.93,0,1,1-47.94-19.76A25.74,25.74,0,0,1,357.19,55,26,26,0,0,1,371.42,88.7Z"/><path class="cls-1" d="M370.63,126.63a25.81,25.81,0,1,1-14-33.72,25.67,25.67,0,0,1,14,33.72Z"/></g></g></svg>