<?xml version="1.0" encoding="utf-8"?>
<!-- Generator: Adobe Illustrator 24.0.1, SVG Export Plug-In . SVG Version: 6.00 Build 0)  -->
<svg version="1.1" id="Layer_1" xmlns="http://www.w3.org/2000/svg" xmlns:xlink="http://www.w3.org/1999/xlink" x="0px" y="0px"
	 viewBox="0 0 1103.2 140" style="enable-background:new 0 0 1103.2 140;" xml:space="preserve">
<style type="text/css">
	.st0{fill:#FFBB00;}
</style>
<title>brush</title>
<g id="Layer_2_1_">
	<g id="svg2">
		<path id="path2987" class="st0" d="M214.3,139.8c-5.5-0.1-14.7-0.4-20.5-0.5c-20.7-0.4-33.5-0.7-35.2-0.8c-1-0.1-4.8-0.2-8.5-0.3
			s-7.7-0.3-8.8-0.4s-3.8-0.3-5.9-0.3c-6.9-0.2-13.3-0.6-18.3-1.3c-1.4-0.2-2.8-0.3-4.1-0.3c-0.3,0.1-0.4,0-0.2-0.1s-1.7-0.3-6-0.4
			c-3.5,0-6.8-0.1-7.3-0.2c-0.6-0.2-1-0.7-1.2-1.2c-0.4-1.2-1-1.4-6.6-1.9c-2.1-0.2-5.4-0.6-7.3-1s-4.2-0.7-5-0.8
			c-2.4-0.3-2.4-0.9,0.1-2.2s4.7-2,9-2.5c2.8-0.4,6.5-1.8,6.5-2.4c0-0.2-2.5-0.7-6.1-1c-1-0.1-4.1-0.3-7-0.4s-6.8-0.4-8.6-0.7
			c-3.5-0.4-6.9-0.5-10.4-0.5c-7.7,0-11-0.5-11.5-1.6c-0.2-0.4-1.6-0.9-3.7-1.4c-1.9-0.5-3.3-1-3.1-1.1s0-0.2-0.5-0.1
			c-1.9,0.3-4.7-0.3-5.8-1.4s-0.6-2.2,1-2.2c0.5,0,0.9-0.1,0.9-0.2c1.3-0.2,2.7-0.3,4-0.3c1.4,0.1,2.8-0.1,4.2-0.4
			c0.4-0.2,0.8-0.3,1.3-0.3c0.5,0,1-0.1,1.5-0.3c0.3-0.2,0.6-0.3,1-0.3c0.3,0,0.5,0.1,0.3,0.2s0.5,0.2,1.4,0.2s1.7-0.2,1.7-0.4
			s0.3-0.3,0.6-0.2s0.6,0.1,0.6-0.1c0-0.5-1.5-0.7-4.2-0.5c-1.7,0.1-3.4,0-5.2-0.2c-1.4-0.2-3-0.4-3.5-0.4c-0.6-0.1-1.3-0.2-1.9-0.3
			c-0.7-0.1-1.5-0.2-2.2-0.1c-1.5,0.2-2-0.2-0.8-0.7c0.5-0.2,0.9-0.3,0.9-0.1s0.2,0.1,0.5,0c0.8-0.5,3.1-1.1,3.1-0.8
			c0,0.2,0.3,0.3,0.6,0.3s0.5-0.1,0.3-0.2c-0.4-0.3,4.3-0.4,5.5,0c0.5,0.2,1.1,0.2,1.7-0.1c0.8-0.4,3.2-0.6,2.7-0.2s1.3,0.3,2.1-0.2
			c0.7-0.3,1.5-0.4,2.2-0.2c1.9,0.4,2.5,0.4,1.4,0c-0.7-0.2-0.3-0.3,1.2-0.3c1.1,0,4-0.1,6.5-0.3s5.1-0.3,6-0.4
			c2.6-0.1,1.9-1.1-1.6-2.3c-2-0.7-2.9-1.2-2.7-1.5c0.3-0.3,0.7-0.3,1-0.2c0.6,0.1,1.2,0.1,1.8,0c1.1-0.2,2.2-0.3,3.4-0.3
			c1.7,0,2.4-0.2,3.2-0.8c1.3-1,1.5-1.6,0.8-2.3c-0.3-0.3-0.3-0.5-0.1-0.4s0.9-0.3,1.4-1c0.4-0.6,0.9-1,1.5-1.3
			c0.4-0.1-0.4-0.2-1.7-0.3c-1.7,0-2.1-0.1-1.4-0.3s0.4-0.3-1-0.3c-1.1,0-2.1-0.1-3.1-0.3c-0.6-0.2-3.4-0.8-6.4-1.4
			c-6-1.3-9.4-1.6-22.1-1.9c-9.7-0.3-10.8-0.3-12.3-0.8s-9.5-1.1-14.6-1.2c-2.3,0-4.5-0.3-6.7-0.7c-1.8-0.4-3.7-0.7-5.6-0.9
			C4.1,87.8,0,87,0,86.7c1.1-0.4,2.2-0.7,3.4-0.8c2.9-0.5,5.3-0.6,15.7-0.5c8.3,0,13.1-0.1,14.6-0.3c2.2-0.4,4.3-0.3,9.7,0.3
			c1.4,0.2,5.3,0.3,8.8,0.4c2.5,0,4.9,0.1,7.3,0.4c1.1,0.2,2.2,0.2,3.3,0.1c0.9-0.1,1.8-0.2,2.7-0.2c1,0.1,18.9,0.1,20.9,0
			c3.4-0.2,7.6-0.4,13.4-0.5c2.1,0,4.1-0.2,6.2-0.5c0.6-0.3-0.4-0.5-2.4-0.4c-0.4,0-0.7-0.1-0.7-0.3s-0.4-0.3-0.8-0.2
			c-0.5,0.1-1.1,0-1.6-0.3c-0.6-0.4-0.8-0.4-1.2-0.1s-0.5,0.3-0.5,0s-0.4-0.3-1.1-0.2s-1.2,0-1.5-0.4c-0.1-0.1-0.2-0.4,0-0.5
			c0.1-0.1,0.2-0.1,0.3-0.1c0.9-0.2,2.4-1,2.4-1.3s-2.3-1.6-2.9-1.4c-0.3,0.1-0.4,0-0.2-0.3s0-0.4-1-0.3s-1.3,0.1-0.9-0.3
			c0.6-0.7-0.7-1-1.7-0.3c-0.6,0.4-0.8,0.4-0.6,0.1c0.3-0.5-2.4-1.3-3.4-1c-0.3,0.1-0.4,0-0.2-0.2s0.2-0.3-0.2-0.4
			c-0.3,0-0.6,0.2-0.6,0.5c0,0.7-1.2,0.6-1.2-0.1c0-0.5-0.1-0.4-0.5,0.1c-0.3,0.3-0.4,0.7-0.3,0.8s-0.3,0.2-1,0.2
			c-1.4,0-1.4-0.2-0.2-0.7c0.7-0.3,0.2-0.3-2.4-0.3c-2,0-3.2,0-3-0.2s-0.2-0.2-0.8-0.1s-1.2,0-1.2-0.2S76.4,77,76,77.1
			s-0.6,0.1-0.2-0.4c0.3-0.3,0.5-0.6,0.6-1c0.3-0.7,1.8-0.9,3.6-0.5c1,0.2,1.4,0.4,1,0.4c-1.4,0-0.7,0.6,0.8,0.6
			c1.1,0,1.4-0.1,1.2-0.4s0-0.5,0.3-0.6s0.3-0.4-0.2-0.7s-0.6-0.5,0.2-0.3c0.6,0.1,1.2,0.1,1.8-0.1c0.7-0.2,0.6-0.3-0.2-0.1
			s-1,0-0.6-0.7c0.2-0.4,0.5-0.8,0.9-1c0.9-0.3-0.1-1.5-1-1.3c-0.6,0.1-0.8,0-0.7-0.4s-0.1-0.6-1-0.5c-0.7,0-0.8,0-0.4-0.1
			s0.6-0.3,0.4-0.4s0.3-0.4,0.9-0.7s1-0.5,0.8-0.6s0.1-0.2,0.8-0.2c0.9,0,1,0,0.3-0.3c-0.4-0.2-0.9-0.2-1.3,0.1
			c-0.2,0.2-0.5,0.3-0.8,0.2c-0.4-0.2,0.8-1.5,1.6-1.8s1.4-1.6,0.8-1.4c-0.4,0-0.9-0.1-1.2-0.4c-0.6-0.5-0.5-0.6,0.9-0.5
			c1,0,1.6-0.1,1.5-0.3s0.1-0.4,0.3-0.3c1.2,0.1,1.9-0.1,1.9-0.5c0.1-0.3,0.3-0.5,0.6-0.5c0.3,0,0.5-0.1,0.3-0.3s0-0.3,0.4-0.4
			s0.3-0.2-0.3-0.2s-1-0.1-1-0.3c-0.6-0.2-1.3-0.3-2-0.2c-1.1,0-1.9-0.1-1.7-0.2s-0.2-0.3-0.9-0.3s-1.1-0.1-0.9-0.3s0.1-0.3-0.3-0.3
			s-0.5-0.2-0.3-0.5s0.2-0.4-0.5-0.1s-0.9,0.3-0.9-0.1s0.6-0.5,1.2-0.6s1.2-0.4,1.2-0.8s-0.2-0.6-1.6-0.5s-1.4,0.1-0.6-0.2
			s0.9-0.4-0.2-1.1c-0.6-0.4-1.4-0.7-2.1-0.8c-1.8,0-0.2-0.3,2.2-0.4c1.4-0.1,2.3,0,2.1,0.2s-0.1,0.3,0.2,0.3c0.3,0,0.6-0.1,0.9-0.3
			c0.7-0.2,1.5-0.3,2.3-0.2c0.9,0.1,1.8,0,2.6-0.2c0.3-0.2,0.7-0.2,1.1,0c0.3,0.2,0.7,0.2,1.5,0c0.8-0.2,1.6-0.3,2.5-0.3
			c2.1,0,9.3-0.3,9.8-0.4s6.8-0.5,8.8-0.5c1,0,1-1.5-0.1-1.9c-0.5-0.2-0.9-0.7-1-1.2c-0.1-0.5-0.4-0.8-0.8-0.7s-0.6,0-0.4-0.3
			s-0.3-0.5-1.4-0.6c-1.9-0.2-3.3-0.9-2.7-1.3c0.2-0.2-0.2-0.2-0.8-0.1c-0.8,0.1-1.2,0-1.2-0.4s-0.5-0.6-1.1-0.7
			c-1.3-0.2-1.5-0.6-0.5-0.9c0.4-0.1,0.5-0.1,0.3,0.2s-0.2,0.3,0,0.3c1.3-0.1,1.9,0.1,1.9,0.5c0,0.6,1.4,0.4,1.7-0.3
			c0.1-0.3,0-0.5-0.3-0.5c-1.6,0.1-2.5-0.1-2.5-0.7c0-0.2,0.2-0.5,0.4-0.5c0.1,0,0.1,0,0.2,0c0.2,0.1,0.5,0,0.6-0.2
			c0-0.1,0-0.1,0-0.2c0.1-0.4,0.4-0.7,0.8-0.6c0.4,0,0.9-0.2,1.2-0.5c0.2-0.3,0.1-0.4-0.2-0.3c-0.3,0.1-0.6,0-0.8-0.2
			c-0.1-0.2-0.2-0.1-0.1,0.2c0.1,0.2,0,0.4-0.2,0.5c-0.1,0-0.1,0-0.2,0c-0.3,0-0.5-0.2-0.5-0.4s-0.4-0.1-0.8,0.2
			c-0.6,0.4-0.7,0.7-0.2,0.8s0.2,0.2-0.6,0.2c-1.1,0-1.8-0.8-0.8-0.8c0.2,0,0.6-0.4,0.8-0.9c0.3-0.7,0.7-0.9,1.9-0.9
			c0.8,0,1.5-0.1,1.5-0.3s0.5-0.3,1.2-0.3c1.2,0,1.6,0.5,0.5,0.8s-0.1,0.7,1.8,0.6c2.4-0.1,3-0.4,0.8-0.5c-1.7,0-1.7,0-0.2-0.3
			l1.5-0.2l-1.3-0.4c-1.5-0.4-1.7-1-0.4-1c0.5,0,0.8,0.1,0.5,0.3s-0.1,0.3,0.3,0.3c0.3,0,0.6-0.3,0.6-0.6c0-0.4,0.4-0.6,1-0.6
			c0.9,0,0.8-0.1-0.1-0.4s-1.2-0.4-1.4,0s-0.7,0.3-1.4,0.2c-1-0.2-1-0.2-0.1-0.7c0.6-0.3,1.2-0.5,1.9-0.5c0.8,0,1.1-0.4,0.9-1
			c0-0.1,0.4-0.2,0.9-0.2s0.8-0.1,0.6-0.3c-0.4-0.4,0.7-0.7,1.5-0.5c0.4,0.1,0.4,0.3-0.1,0.6s-0.5,0.4,0,0.4c0.7,0,0.9-0.4,0.7-1.3
			c-0.1-0.8,1-1.1,3.7-1.1c1.3,0,2.2-0.1,2.1-0.3s1.1-0.3,3.4-0.3c1.4,0,2.9-0.1,4.3-0.3c0.8-0.2,1.6-0.2,2.4-0.1
			c0.8,0.2,1.7,0.1,2.5-0.3c0.4-0.3,0.6-0.4,0.3-0.3s-1.3-0.4-2.1-1.1s-1.6-1.2-1.6-1s-0.5,0-1.2-0.3s-1.1-0.7-1.1-0.9
			s0.3-0.1,0.6,0.2c0.4,0.3,1,0.5,1.5,0.5c0.7,0,0.8-0.1,0.3-0.3s-0.5-0.5-0.3-0.8s0.4-0.4,0.8,0s0.5,0.2,0.5-0.2
			c0-0.8-1.3-1.8-2-1.5c-0.3,0.1-0.3,0,0-0.2c0.3-0.2,0.7-0.3,1-0.2c0.3,0.1,0.6,0,0.6-0.1s-0.2-0.4-0.5-0.5c-0.7-0.2,0-1.1,1.3-1.6
			c0.6-0.2,0.9-0.5,0.7-0.7s0.1-0.2,1-0.1c1.1,0.2,1.3,0.1,0.7-0.2c-0.9-0.5-0.9-1.4-0.1-1.6c0.6-0.1,0.7-0.6,0.6-1.9
			c-0.1-0.3-0.6-0.5-1.3-0.5s-1-0.1-0.6-0.2c0.9-0.3,1.5-1.2,0.9-1.4c-0.3-0.1-0.6,0-0.8,0.2c-0.1,0.2-0.4,0.3-0.6,0.2
			c-0.2-0.1-0.1-0.4,0.2-0.6c0.4-0.4,0.7-0.4,1.7,0.1c1.2,0.6,1.2,0.6,1.3,0c0-0.3,0.2-0.4,0.4-0.2c0.2,0.2,0.5,0.4,0.9,0.4
			c0.3,0,0.5-0.2,0.3-0.5s-0.1-0.4,0.1-0.4c0.7,0,1.4-0.1,2.1-0.3c0.7-0.2,1.5-0.2,2.2-0.2c0.3,0.1,0.5,0,0.6-0.2s0.3-0.3,0.6-0.2
			c0.3,0.1,0.6,0.1,0.9-0.1c0.4-0.2,0.9-0.3,1.4-0.3c1.8,0,3.6-0.3,5.3-0.9c1.1-0.3,2.2-0.5,3.4-0.7c0.4,0,0.8-0.1,1.1-0.4
			c0.3-0.4,5.8-0.6,5.7-0.2c0,0.1,0.7,0.1,1.6,0c2.7-0.2,5.5-0.2,8.2,0.1c1.4,0.2,1.8,0.1,2.5-0.5c0.4-0.4,0.6-0.9,0.5-1
			c-0.5-0.4-4.4-0.7-10.9-0.9c-2.3,0-4.6-0.1-6.9-0.5c-0.6-0.2-1.2-0.3-1.8-0.3c-0.3,0-1.4,0-2.6,0c-1.6,0-2.2-0.2-2.4-0.7
			s0-0.6,1.3-0.6c1.5,0,1.5,0,0.4-0.4s-0.5-0.4,4.3-0.4c1.8,0,3.6,0.1,5.4,0.3c0.5,0.2,1.1,0.2,1.6,0.1c4-0.2,10.1-0.5,12.3-0.5
			c1.4,0,2.3-0.1,2.2-0.3s0.2-0.3,0.8-0.3c1.3,0,2.6-0.1,3.9-0.4c0.8-0.3,1.6-0.8,2.2-1.4c1.2-1.2,3.1-1.8,3.5-1.2
			c0.1,0.2,0.5,0.2,1.1,0s1-0.3,1.3-0.1s9.9,0.4,10.5,0c0.3-0.1,0.7,0,1,0.1c1.8,0.3,3.6,0.3,5.4,0c0.9-0.1,1.8-0.1,2.7,0.1
			c1.1,0.2,6.9,0.4,12.8,0.5s14.3,0.3,18.5,0.4c22.6,0.5,29.5,0.7,43.6,0.7c11,0,15.4,0.1,15.4,0.4s0.2,0.3,0.8,0
			c0.8-0.3,4.3-0.4,14.5-0.3c3.1,0,5.8,0.1,6.2,0l7.1-0.3c3.6-0.2,6.9-0.2,7.4-0.1c0.4,0.1,0.9,0.1,1.3-0.1c1.7-0.3,3.5-0.4,5.2-0.3
			c2.7,0,6.4-0.2,8.3-0.3s6.8-0.3,10.9-0.4s9.4-0.2,11.6-0.2c1.7-0.1,3.5,0,5.2,0.2c0.6,0.2,0.9,0.2,0.8,0s2.1-0.3,5.4-0.2
			c2.6,0.1,5.2,0,7.8-0.3c1.6-0.3,2.2-0.3,2.5,0s0.4,0.3,0.4,0s1.7-0.3,4.3-0.4c5.8-0.1,23.6,0,27.2,0.1c1.6,0,5.3,0,8.2-0.1
			c7-0.2,17.9-0.3,17.9-0.1s2.8,0.1,7.5-0.3c2-0.2,3.9-0.2,5.9-0.1c2,0.3,6,0.4,6,0.1c0.5-0.2,1.1-0.2,1.6-0.2
			c16.4,0.1,47.4-0.3,48.5-0.7c0.3-0.1,0.5,0,0.5,0.1s0.8,0.2,1.8,0.1c0.9-0.1,1.9,0,2.8,0.1c1.3,0.3,3.7,0.4,3.4,0.1
			c-0.1-0.1,4.3-0.1,9.9-0.1s10.1,0.1,10.1,0.2s1.7,0.1,3.7,0.1c1.2,0.1,2.5,0.1,3.7-0.1c0.7-0.1,1.4-0.1,2.1,0.1
			c0.8,0.1,1.5,0.1,2.3,0C564.3,4,566.2,4,568,4c3.2,0,5.3-0.1,5.3-0.3s0.2-0.2,0.4,0c0.5,0.4,5,0.4,5.6,0c0.3-0.2,0.5-0.2,0.4,0
			s1,0.3,2.2,0.3c1.2,0,2.4,0.1,3.6,0.3c0.8,0.2,1.6,0.2,2.4,0c1-0.3,3.5-0.4,16.2-0.7c3.2-0.1,8.5-0.3,11.8-0.4S626.6,3,632.3,3
			s11.3-0.1,12.6-0.2s8.4-0.2,15.9-0.2c17.4,0,30.6-0.2,35.8-0.5l10.9-0.7c3.7-0.2,9.9-0.6,13.8-0.8l9.7-0.5c4.5-0.3,9-0.2,13.5,0.2
			c2.5,0.2,10,0.4,21,0.4c9.4,0,17.3,0.1,17.5,0.2s10.2,0.3,22.1,0.4s23.8,0.4,26.4,0.5c14.5,0.5,25.5,0.7,49.6,0.7
			c3.4,0,7.1,0.1,8.2,0.1c2.4,0.1,13.7,0.4,24.3,0.7c22.9,0.5,31.5,0.7,46.9,0.9c9.4,0.1,17.9,0.3,19.1,0.4s4.2,0.2,6.7,0.3
			c3.7,0.1,7.3,0.3,10.9,0.7c0.2,0.1,2.2,0.2,4.4,0.3s5.6,0.3,7.5,0.5l5.3,0.4c1,0.1,3.9,0.4,6.5,0.8s5.3,0.7,6,0.7s1.2,0.1,1.2,0.3
			s0.3,0.3,0.7,0.3c4,0,13.4,0.6,14.9,0.8c1.1,0.2,2.2,0.6,3.1,1.2c1.3,1,4.8,2,8.1,2.3c4.1,0.4,11.1,0.7,12.6,0.7
			c0.8,0,1.5,0.1,1.5,0.3s0.2,0.2,0.4,0.1c0.6,0,1.1,0.1,1.6,0.4c1.7,0.7,3.4,1.2,5.1,1.7c2.6,0.8,5.3,1.2,8.1,1.2
			c4.4,0.1,5.2,0.4,4.7,1.6c-0.3,0.8-2.7,1.4-5.2,1.4c-0.6,0-1.2,0.1-1.7,0.3c-0.8,0.2-1.6,0.4-2.4,0.3c-3.1,0-7.9,0.6-7.9,1
			c0,0.6,4.4,1.5,8.8,1.6c2.4,0.1,7.9,0.2,12.2,0.4c8.8,0.2,9.7,0.3,10.2,1c0.7,0.9-7.5,4.1-14.2,5.5c-2.2,0.4-3.3,0.9-4,1.6
			c-1.3,1.3-0.7,1.9,2.8,3c1.4,0.4,2.5,1,2.4,1.2s0.4,0.7,0.8,0.9c1.3,0.7,1,1.5-1,2c-1.5,0.5-3,1.1-4.4,1.8
			c-1.7,0.9-3.5,1.4-5.4,1.3c-2.1,0.1-3.2,0.3-3.9,0.8c-0.6,0.4-0.9,0.8-0.7,0.9s0,0.2-0.3,0.2c-0.5,0.1-1,0.3-1.3,0.7
			c-0.4,0.4-0.5,0.6-0.3,0.5c0.6-0.3,2.2,0.6,1.7,1c-0.2,0.2,0.1,0.2,0.7,0.2s0,0.1-1.3,0.5c-1.4,0.3-2.8,0.5-4.3,0.6
			c-1.1,0-2.3,0.1-3.4,0.3c-1.1,0.2-1.5,0.2-1.5-0.1s-0.3-0.1-0.6,0.2c-1.1,1-0.1,2,2.8,2.8c1.3,0.3,2.5,0.8,3.6,1.5
			c1,0.6,2.1,1,3.2,1.1c4.7,0.8,5.4,2.3,1.2,2.9c-2.6,0.4-3.8,1.4-3.1,2.4c0.4,0.5,0.4,0.8-0.1,0.8c-1.1,0-2.2,0.8-2.1,1.5
			s0,0.8-5,1.3c-1.1,0.2-2.2,0.5-3.3,1c-1.1,0.5-2.3,0.9-3.4,1.2c-0.9,0.2-1.6,0.6-1.7,0.9c0,0.6-2.2,1.1-4.7,1.3
			c-2.8,0.1-3.9,0.5-4.1,1.3s2.1,2.1,3.3,2.1c0.7,0,4,1.8,4,2.2s-2.2,0.9-6.3,1c-2.2,0.1-5.4,0.3-7,0.5c-2.7,0.3-12.3,1.1-14.5,1.2
			c-0.9,0-1.3,1.1-0.5,1.2c0.3,0,0.2,0.3-0.1,0.6s-0.4,0.7-0.2,0.8c0.7,0.4,0.3,4.3-0.5,4.7c-1.1,0.3-2.3,0.5-3.5,0.5
			c-2.4,0.1-4,0.5-3.5,1c0.1,0.1-0.2,0.3-0.6,0.6s-0.8,0.3-0.8,0.2s-0.3-0.1-0.7,0.1c-0.5,0.3-1,0.3-1.5,0c-0.8-0.3-1.7-0.3-2.5,0
			c-3,0.6-2.1,1.6,2,1.9c4.5,0.4,5.5,0.7,4.8,1c-0.2,0.1-4.4,0.2-9.3,0.2c-10.5,0.1-11.7,0.3-12.6,2.6c-0.5,0.9-1.2,1.8-2,2.4
			c-1.1,0.8-2,1.9-2.4,3.2c0,0.2-0.9,0.3-2,0.4c-1.3,0.1-2.1,0.3-2.3,0.7c-0.1,0.3-0.5,0.5-0.8,0.4c-0.3-0.1-0.5,0-0.5,0.1
			c-0.8,0.5-1.7,0.9-2.7,1.1c-4.2,1.2-4.8,2.3-1.7,2.9c1.4,0.3,1.5,0.5,0.5,1.8c-0.8,0.9,1.2,1.6,7.5,2.4c6.1,0.8,7.8,1.4,6,2
			c-1.1,0.4-9.1,0-21.6-1.1c-5.7-0.5-8.1-0.2-9.4,0.9s-2.7,1.5-6.6,1.6c-3.2,0.1-6.3,0.9-6.3,1.7c0,0.5,2.6,0.9,5.6,1
			c2.3,0,4.9,0.9,3.6,1.1c-0.6,0.1-1.1,0.3-1.6,0.6c-0.5,0.2-0.9,0.4-0.9,0.3c0-0.4-3.6,0.8-4.3,1.4c-1.6,1-3.4,1.6-5.2,1.7
			c-3-0.1-7,0.1-7,0.3c0,0.5,3,1.8,3.7,1.6c0.3-0.1,0.4,0,0.2,0.2s-0.1,0.4,0.2,0.5s0.4,0.3,0.2,0.5s0,0.5,0.3,0.8
			c1.1,0.7,0,1-4.5,1.2c-2.3,0.1-5.3,0.3-6.8,0.4s-6.4,0.6-10.9,0.9s-9.7,0.9-11.5,1.2c-2.3,0.4-4.6,0.5-6.9,0.6
			c-2.6,0-5.3,0.2-7.9,0.6c-4,0.6-5.4,0.6-24.8,0.3c-11.3-0.1-22.8-0.3-25.5-0.4c-7.2-0.2-15.9-0.6-17.1-0.7
			c-0.6-0.1-7.4-0.2-15.3-0.4c-11.2-0.2-15.9-0.2-22.2,0.2c-4.4,0.3-12.4,0.5-17.8,0.6s-10.9,0.2-12,0.3c-4.1,0.2-18,0.7-26.3,0.8
			c-4.5,0.1-12.7,0.2-18.2,0.4s-16.6,0.3-24.7,0.4s-15.5,0.2-16.5,0.2s-7.6,0.2-14.8,0.2s-13.8,0.2-14.7,0.2
			c-1.8,0.1-6.3,0.2-22,0.7c-12.3,0.4-21.6,0.8-29.3,1.3c-3.3,0.2-7.1,0.4-8.3,0.4c-1.3,0-2.7,0.1-4,0.3c-0.9,0.1-3.4,0.3-5.4,0.4
			s-6.3,0.4-9.4,0.7s-7.3,0.6-9.2,0.7s-5.5,0.3-7.9,0.4s-6,0.3-8,0.4s-6.4,0.3-9.9,0.6s-8.5,0.5-11.2,0.6s-6.3,0.3-8.2,0.4
			S511,135,507,135s-9.2,0.1-11.6,0.3c-4.8,0.3-15,0.5-22.9,0.6c-2.7,0-6.2,0.1-7.6,0.3s-11.5,0.3-22.3,0.3s-20.2,0.1-20.9,0.2
			s-6.4,0.2-12.6,0.3s-12.7,0.2-14.3,0.2s-7.6,0.1-13.2,0.2s-12.5,0.2-15.3,0.3s-5.3,0.1-5.6,0.1s-4.4,0-9.1,0.2s-11.2,0.4-14.4,0.4
			s-6.8,0.2-7.9,0.3s-5.6,0.2-10,0.3s-8.1,0.2-8.2,0.3s-3.6,0.2-7.6,0.3s-7.9,0.2-8.5,0.3c-1.2,0.1-42.8,0.3-60.8,0.3
			C228.5,140.1,219.7,139.9,214.3,139.8L214.3,139.8z M94.8,101.4c0.3,0,0.1-0.3-0.5-0.6c-0.9-0.5-1.7-0.6-5.2-0.6
			c-1.5-0.1-2.9,0.1-4.3,0.4c-0.3,0.5,3.7,1,6.8,0.9L94.8,101.4z M109.3,84.8c0-0.1-0.3-0.1-0.6-0.1s-0.6,0.1-0.6,0.3
			s0.3,0.2,0.6,0.1S109.3,84.9,109.3,84.8z M79.7,75.6c-0.3-0.2-0.6-0.3-0.9-0.3c-0.5-0.1-0.8-0.1-0.6,0.1S79.7,75.8,79.7,75.6z
			 M86.6,65.9c-0.6-0.3-0.6-0.3-0.3,0.2s0.5,0.5,0.7,0.4S87,66.1,86.6,65.9z M91.5,62.2c-0.6-0.3-0.6-0.3-0.3,0.2s0.5,0.5,0.7,0.4
			S91.9,62.4,91.5,62.2z M87.1,60.5c-0.2-0.2-0.4-0.3-0.6-0.3c-0.2,0-0.3,0.2-0.3,0.3c0,0.2,0.3,0.3,0.6,0.3S87.3,60.6,87.1,60.5z
			 M111,46c-0.4-0.1-0.8-0.1-1.1,0c-0.2,0.1,0.1,0.2,0.8,0.2S111.5,46.1,111,46L111,46z M110.9,45.2c-0.9-0.4-2.3-1.6-2.3-1.9
			c0-0.1,0.4,0,0.9,0.2c1.2,0.5,1.8,0.2,0.9-0.5s-2.3-0.1-2.4,0.7c0,0.2-0.2,0.4-0.5,0.3s-0.5,0.1-0.6,0.4s0.3,0.6,1,0.6
			s1.1,0.2,1.1,0.3s0.6,0.3,1.3,0.3C111.6,45.6,111.6,45.5,110.9,45.2L110.9,45.2z M107.4,44.5c0-0.1,0.3-0.2,0.6-0.3s0.6,0,0.6,0.1
			s-0.3,0.3-0.6,0.3S107.4,44.6,107.4,44.5L107.4,44.5z M118,38.2c0-0.4,0-0.5-0.2-0.3c-0.2,0.2-0.5,0.3-0.8,0.2
			c-0.3-0.1-0.4,0-0.2,0.3C117.3,39.1,117.9,39,118,38.2z M115,38c0.7-0.5-0.1-0.6-0.9-0.1c-0.5,0.3-0.5,0.5-0.1,0.5
			C114.3,38.3,114.7,38.2,115,38L115,38z M134.5,27.6c0-0.1-0.4-0.2-0.9-0.3s-0.9,0-0.9,0.1s0.4,0.3,0.9,0.3S134.5,27.7,134.5,27.6z
			 M36.1,108.6c0-0.2,0.3-0.4,0.6-0.5s0.6,0,0.6,0.3c0,0.3-0.3,0.5-0.6,0.5C36.4,108.8,36.1,108.7,36.1,108.6L36.1,108.6z M61,83.6
			c0.4-0.2,0.9-0.3,1.4-0.2c0.4,0.1,0.2,0.2-0.6,0.3C60.8,83.8,60.6,83.7,61,83.6L61,83.6z M69.4,83.7c-0.6-0.2-0.6-0.3-0.1-0.3
			c0.8,0,1.6-0.1,2.3-0.3c0.4-0.1,0.8-0.1,1.1,0.1c0.3,0.2,0.2,0.3-0.3,0.1s-0.7,0-0.7,0.3C71.8,84,70.7,84.1,69.4,83.7L69.4,83.7z
			 M66.4,83c0.4-0.2,0.9-0.2,1.3,0c0.4,0.2,0.1,0.3-0.7,0.3S65.9,83.3,66.4,83L66.4,83z M81.4,78.4c0-0.3,0.3-0.4,0.6-0.3
			s0.6,0.3,0.6,0.5s-0.3,0.3-0.6,0.3C81.7,78.9,81.4,78.7,81.4,78.4C81.4,78.4,81.4,78.3,81.4,78.4L81.4,78.4z M82.3,73.3
			c1-1,1.1-1,1-0.3c-0.1,0.4-0.5,0.7-0.9,0.8C81.7,73.9,81.7,73.8,82.3,73.3L82.3,73.3z M86.2,62c-0.5-0.2-0.2-0.3,0.9-0.4
			c2-0.3,2.3-0.1,0.9,0.3C87.4,62.1,86.8,62.1,86.2,62z M98.9,41.4c0.4-0.1,0.8-0.1,1.1,0c0.5,0.1,0.3,0.2-0.4,0.2
			S98.6,41.5,98.9,41.4L98.9,41.4z M100.7,40.2c0.4-0.1,0.8-0.1,1.1,0c0.5,0.1,0.3,0.2-0.4,0.2S100.5,40.3,100.7,40.2z M111.3,36.3
			c0-0.3,0.1-0.5,0.3-0.4s0.2,0.4,0,0.6S111.3,36.7,111.3,36.3L111.3,36.3z M132.5,19.4c-0.5-0.2-0.6-0.3-0.2-0.3
			c0.4,0,0.7,0.1,1,0.3C133.7,19.8,133.5,19.8,132.5,19.4L132.5,19.4z"/>
	</g>
</g>
</svg>
