<svg xmlns="http://www.w3.org/2000/svg" xmlns:xlink="http://www.w3.org/1999/xlink" viewBox="0 0 1103.16 140.04"><defs><style>.cls-1{fill:url(#linear-gradient);}</style><linearGradient id="linear-gradient" x1="3.03" y1="101.7" x2="1003.03" y2="101.7" gradientTransform="matrix(1.1, -0.01, 0.01, 0.67, -4.06, 6.47)" gradientUnits="userSpaceOnUse"><stop offset="0" stop-color="#ffa52e"/><stop offset="0.3" stop-color="#f8872d"/><stop offset="0.76" stop-color="#ee5d2c"/><stop offset="1" stop-color="#ea4d2c"/></linearGradient></defs><title>brush</title><g id="Layer_2" data-name="Layer 2"><g id="svg2"><path id="path2987" class="cls-1" d="M214.26,139.77c-5.49-.15-14.73-.35-20.54-.46-20.68-.37-33.47-.67-35.2-.8-1-.08-4.79-.23-8.5-.32s-7.67-.28-8.79-.39-3.76-.26-5.86-.32c-6.92-.19-13.27-.64-18.31-1.27a21.52,21.52,0,0,0-4.14-.27c-.32.1-.4,0-.18-.14s-1.69-.34-6-.39c-3.54,0-6.83-.14-7.31-.24a1.92,1.92,0,0,1-1.21-1.24c-.39-1.21-1-1.4-6.62-1.94-2.09-.21-5.38-.65-7.3-1s-4.2-.68-5-.77c-2.43-.25-2.39-.93.12-2.24s4.72-2,9-2.49c2.75-.36,6.52-1.75,6.54-2.43,0-.23-2.52-.65-6.12-1-1-.1-4.13-.27-7-.38s-6.76-.4-8.57-.65a95.68,95.68,0,0,0-10.43-.49c-7.74,0-11-.48-11.54-1.56-.17-.37-1.62-.94-3.69-1.45-1.87-.46-3.26-1-3.09-1.09s0-.19-.46-.12c-1.9.34-4.74-.34-5.76-1.36s-.6-2.17,1.05-2.16c.47,0,.86-.1.87-.23a18.33,18.33,0,0,1,4-.3,17.12,17.12,0,0,0,4.17-.36,2.13,2.13,0,0,1,1.29-.29,3,3,0,0,0,1.47-.3,1.85,1.85,0,0,1,1-.3c.32,0,.46.11.29.24s.48.24,1.43.24,1.72-.17,1.73-.4.28-.32.6-.21.58.06.59-.1c0-.47-1.51-.65-4.21-.5a31,31,0,0,1-5.16-.21c-1.44-.19-3-.4-3.5-.45a19.19,19.19,0,0,1-1.91-.33,8,8,0,0,0-2.2-.08c-1.49.2-2-.22-.83-.7.49-.21.89-.26.88-.11s.2.13.45,0c.75-.51,3.11-1.08,3.1-.75,0,.17.27.31.61.31s.5-.11.34-.24c-.39-.34,4.33-.38,5.51,0a2.32,2.32,0,0,0,1.66-.06c.79-.4,3.16-.55,2.69-.17s1.34.28,2.1-.18a2.76,2.76,0,0,1,2.17-.15c1.86.38,2.49.38,1.38,0-.65-.23-.35-.29,1.19-.27,1.13,0,4-.11,6.47-.29s5.12-.34,6-.36c2.57-.06,1.87-1.08-1.57-2.3-2-.7-2.9-1.22-2.68-1.51a.8.8,0,0,1,1-.15,4,4,0,0,0,1.84,0,21.87,21.87,0,0,1,3.37-.26c1.69,0,2.43-.19,3.24-.81,1.32-1,1.51-1.58.77-2.34-.32-.33-.35-.51-.06-.42s.91-.33,1.36-1a4.25,4.25,0,0,1,1.48-1.34c.36-.13-.4-.24-1.69-.25-1.73,0-2.11-.09-1.45-.31s.43-.29-1-.3A14.16,14.16,0,0,1,75,95c-.56-.15-3.44-.8-6.41-1.43-6-1.27-9.43-1.57-22.08-1.91-9.69-.25-10.78-.32-12.3-.75s-9.55-1.11-14.63-1.22a33.37,33.37,0,0,1-6.72-.73,40.21,40.21,0,0,0-5.55-.87C4.08,87.82,0,87,0,86.67a14.71,14.71,0,0,1,3.41-.79c2.87-.47,5.31-.56,15.73-.53,8.32,0,13.06-.09,14.58-.35,2.2-.37,4.3-.3,9.68.29,1.38.15,5.32.31,8.75.36a61.1,61.1,0,0,1,7.35.4,10.41,10.41,0,0,0,3.27.1A20.3,20.3,0,0,1,65.43,86c1,.13,18.93.12,20.92,0,3.37-.24,7.61-.4,13.45-.52A38,38,0,0,0,106,85c.64-.33-.44-.49-2.37-.37-.41,0-.73-.11-.72-.3s-.37-.28-.84-.19a2.39,2.39,0,0,1-1.55-.3c-.56-.36-.8-.38-1.2-.06s-.5.32-.49,0-.41-.33-1.11-.22-1.24,0-1.49-.36a.38.38,0,0,1,.26-.65c.91-.15,2.41-1,2.43-1.29s-2.29-1.55-2.9-1.36c-.31.1-.41,0-.21-.27s0-.41-1-.28-1.25.07-.94-.32c.57-.73-.66-1-1.66-.33-.55.36-.75.4-.55.11.35-.51-2.37-1.34-3.37-1-.34.11-.41,0-.17-.16s.16-.35-.18-.36a.59.59,0,0,0-.64.46c0,.65-1.19.57-1.22-.08,0-.46-.09-.44-.51.07-.28.34-.42.69-.33.78s-.34.18-1,.2c-1.37,0-1.44-.19-.19-.65.73-.27.21-.33-2.39-.27-2,0-3.17,0-3-.2s-.17-.22-.83-.13-1.17,0-1.16-.21-.3-.26-.69-.14-.55.05-.22-.36a4.82,4.82,0,0,0,.63-1c.25-.71,1.76-.91,3.58-.48,1,.23,1.42.42,1,.43-1.45,0-.74.64.77.64,1.1,0,1.44-.12,1.21-.44s0-.54.29-.64.33-.36-.15-.68-.6-.46.19-.3a3.85,3.85,0,0,0,1.76-.12c.67-.24.62-.27-.2-.13s-1,0-.62-.66a2.31,2.31,0,0,1,.91-1c.86-.28-.06-1.48-1-1.3-.61.12-.81,0-.66-.41s-.1-.55-1-.51c-.65,0-.84,0-.43-.1s.61-.29.44-.43.25-.45.91-.68,1-.52.81-.63.13-.21.75-.21c.92,0,1,0,.27-.28a1.34,1.34,0,0,0-1.29.06.8.8,0,0,1-.8.16c-.37-.2.77-1.49,1.56-1.77s1.44-1.62.81-1.42a1.53,1.53,0,0,1-1.2-.41c-.59-.51-.48-.57.93-.51,1,0,1.55-.08,1.47-.32s.06-.36.3-.34c1.21.1,1.91-.08,1.93-.49a.58.58,0,0,1,.64-.45c.34,0,.48-.13.3-.28s0-.35.42-.43.34-.17-.28-.18-1-.14-1-.27a4.63,4.63,0,0,0-2-.19c-1.13,0-1.9-.08-1.72-.23s-.22-.28-.9-.28-1.08-.14-.87-.31.06-.3-.31-.31-.52-.21-.3-.5.24-.44-.52-.12-.9.3-.89-.07.55-.53,1.2-.62,1.19-.41,1.21-.8-.23-.62-1.6-.47-1.44.11-.6-.16.94-.39-.21-1.09a5,5,0,0,0-2.1-.76c-1.77,0-.17-.33,2.2-.44,1.43-.07,2.31,0,2.1.17s-.09.28.24.29a1.74,1.74,0,0,0,.89-.25,6.39,6.39,0,0,1,2.25-.19,9.28,9.28,0,0,0,2.63-.21,1,1,0,0,1,1.06.05c.25.22.72.23,1.47,0a10.64,10.64,0,0,1,2.47-.26c2.09,0,9.29-.26,9.8-.42s6.81-.52,8.78-.54c1,0,1-1.45-.07-1.86a1.64,1.64,0,0,1-1-1.19c-.06-.53-.37-.79-.82-.71s-.6,0-.41-.27-.29-.48-1.43-.62c-1.93-.23-3.28-.9-2.72-1.35.2-.17-.16-.23-.83-.14-.84.11-1.17,0-1.16-.37s-.5-.59-1.14-.68c-1.31-.19-1.5-.56-.47-.89.43-.13.53-.08.25.15s-.23.34,0,.31c1.26-.1,1.95.08,1.93.52,0,.63,1.4.4,1.67-.28.12-.28,0-.49-.27-.47-1.62.14-2.54-.1-2.51-.67a.44.44,0,0,1,.6-.44.44.44,0,0,0,.61-.43.77.77,0,0,1,.84-.63,1.66,1.66,0,0,0,1.18-.47c.21-.26.13-.39-.17-.3a.7.7,0,0,1-.78-.22c-.13-.21-.18-.14-.11.15a.39.39,0,0,1-.4.53c-.29,0-.52-.16-.51-.36s-.37-.1-.84.22c-.63.43-.68.65-.19.81s.15.2-.55.17c-1.07,0-1.8-.85-.76-.85.23,0,.59-.41.8-.91.31-.73.7-.91,1.87-.91.82,0,1.49-.13,1.5-.3s.54-.3,1.19-.3c1.24,0,1.56.45.54.77s-.08.69,1.77.62c2.4-.1,3-.44.83-.49-1.68,0-1.68,0-.23-.25l1.47-.21-1.3-.38c-1.51-.43-1.71-1-.37-1,.5,0,.75.14.54.31s-.1.3.25.3a.64.64,0,0,0,.64-.61c0-.37.42-.61,1-.6.86,0,.85-.06-.13-.44s-1.18-.36-1.43-.05-.74.31-1.4.19c-1-.2-1-.24-.08-.73a4.89,4.89,0,0,1,1.86-.5c.75,0,1.11-.37.94-1,0-.13.36-.23.86-.23s.77-.12.59-.28c-.43-.37.7-.72,1.49-.46.41.13.38.33-.1.62s-.52.43,0,.44c.68,0,.89-.37.73-1.34-.13-.76,1-1.09,3.69-1.08,1.3,0,2.15-.14,2.07-.34s1.14-.33,3.39-.33a21.61,21.61,0,0,0,4.27-.29,6.67,6.67,0,0,1,2.45-.12,3.57,3.57,0,0,0,2.49-.33c.43-.28.55-.41.25-.29s-1.25-.36-2.13-1.08-1.62-1.18-1.62-1-.53,0-1.17-.28-1.14-.71-1.12-.89.29-.09.61.2a2.58,2.58,0,0,0,1.54.54c.72,0,.81-.08.33-.34s-.49-.54-.3-.79.44-.37.83,0,.48.24.49-.21c0-.76-1.32-1.75-2-1.45-.27.12-.29.05,0-.16a1.12,1.12,0,0,1,1-.21c.3.1.55,0,.55-.13s-.23-.38-.54-.49c-.74-.24,0-1.13,1.33-1.62.6-.22.93-.54.73-.72s.12-.24,1-.09c1.13.18,1.26.15.67-.18-.87-.49-.91-1.41-.06-1.56.58-.09.74-.62.55-1.85-.05-.32-.58-.54-1.31-.54s-1-.11-.58-.23c.92-.32,1.51-1.24.92-1.44a.76.76,0,0,0-.79.22.53.53,0,0,1-.61.22c-.19-.09-.1-.36.2-.6.45-.37.72-.35,1.72.14,1.16.56,1.19.56,1.26,0,0-.32.2-.41.35-.2a1.23,1.23,0,0,0,.88.39c.33,0,.46-.2.29-.45s-.13-.44.1-.41a12.69,12.69,0,0,0,2.09-.3,6.62,6.62,0,0,1,2.21-.18c.29.1.54,0,.55-.16s.25-.27.55-.17a1.06,1.06,0,0,0,.9-.11,2.67,2.67,0,0,1,1.37-.28,17.42,17.42,0,0,0,5.33-.87,21.62,21.62,0,0,1,3.35-.66,1.5,1.5,0,0,0,1.07-.37c.27-.4,5.75-.56,5.74-.18,0,.13.72.13,1.61,0a41,41,0,0,1,8.2.14c1.4.17,1.83.08,2.49-.54.44-.41.65-.87.46-1-.48-.42-4.44-.73-10.91-.85a47.43,47.43,0,0,1-6.86-.47,7.2,7.2,0,0,0-1.75-.34c-.25,0-1.42,0-2.59,0-1.61,0-2.21-.2-2.42-.66s0-.61,1.28-.62c1.49,0,1.51,0,.45-.45s-.54-.43,4.27-.35a39.27,39.27,0,0,1,5.37.28,3.61,3.61,0,0,0,1.62.1c4-.23,10.06-.46,12.3-.48,1.35,0,2.33-.12,2.18-.26s.2-.26.79-.28a17.49,17.49,0,0,0,3.89-.38,5.85,5.85,0,0,0,2.23-1.38c1.19-1.16,3.11-1.83,3.47-1.21.14.23.47.22,1.09,0s1-.26,1.27-.06,9.87.36,10.5,0a1.55,1.55,0,0,1,1,.12,14.62,14.62,0,0,0,5.35,0,9,9,0,0,1,2.66.1c1.11.16,6.89.39,12.84.5s14.26.29,18.46.39c22.6.54,29.51.65,43.57.68,11,0,15.41.13,15.4.38s.2.25.77,0c.79-.33,4.33-.4,14.51-.29,3.06,0,5.84.06,6.16,0l7.06-.28c3.56-.15,6.91-.19,7.44-.1a2.13,2.13,0,0,0,1.29-.1,29.94,29.94,0,0,1,5.2-.3c2.69,0,6.4-.18,8.25-.34s6.75-.34,10.88-.4,9.36-.15,11.63-.2a30.08,30.08,0,0,1,5.2.2c.59.16.94.18.77,0s2.15-.25,5.37-.22a62.61,62.61,0,0,0,7.75-.31c1.56-.26,2.17-.26,2.49,0s.42.25.44,0,1.66-.35,4.28-.38c5.83-.07,23.56,0,27.16.07,1.61,0,5.31,0,8.22-.09,7-.23,17.92-.27,17.91-.08s2.81.14,7.53-.25a37.67,37.67,0,0,1,5.87-.14c2,.29,6,.38,6,.14a3.88,3.88,0,0,1,1.62-.18c16.43.08,47.42-.35,48.46-.68.26-.08.46,0,.45.13s.78.21,1.75.14a11.84,11.84,0,0,1,2.78.11c1.3.29,3.65.39,3.36.14-.11-.1,4.34-.13,9.89-.08s10.1.14,10.09.17,1.65.08,3.67.12a16.59,16.59,0,0,0,3.67-.12,5.74,5.74,0,0,1,2.06.06,6.78,6.78,0,0,0,2.31,0,41.84,41.84,0,0,1,5.58-.17c3.18,0,5.33-.08,5.34-.26s.2-.17.44,0c.52.41,5,.41,5.56,0,.3-.2.45-.2.44,0s1,.3,2.2.28a21.88,21.88,0,0,1,3.56.25,5.86,5.86,0,0,0,2.44,0c1.05-.28,3.51-.39,16.19-.7,3.23-.08,8.53-.25,11.76-.39S626.61,3,632.26,3s11.34-.1,12.63-.22,8.44-.21,15.87-.21c17.44,0,30.57-.19,35.8-.52l10.93-.69c3.72-.24,9.94-.57,13.83-.75L731,.15a90.82,90.82,0,0,1,13.55.22c2.48.24,10,.41,21,.45,9.42,0,17.32.13,17.54.2s10.18.26,22.13.42,23.82.37,26.4.46c14.49.51,25.48.67,49.59.74,3.39,0,7.09.07,8.22.12,2.44.13,13.73.44,24.34.68,22.93.52,31.49.68,46.94.86,9.36.11,17.94.28,19.07.38s4.16.23,6.74.3a106.62,106.62,0,0,1,10.94.72c.21.07,2.19.21,4.39.3s5.58.32,7.51.49l5.27.44c1,.07,3.9.43,6.52.79s5.32.67,6,.67,1.22.12,1.21.26.32.26.72.26c4,0,13.45.55,14.94.81a8.63,8.63,0,0,1,3.09,1.24c1.3,1,4.83,2,8.08,2.28,4.06.37,11.09.74,12.56.66.83,0,1.5.07,1.49.25s.17.24.4.13a2.73,2.73,0,0,1,1.6.4,44,44,0,0,0,5.12,1.69,28.77,28.77,0,0,0,8.09,1.24c4.4.15,5.18.41,4.7,1.59-.31.76-2.67,1.37-5.24,1.36a3.81,3.81,0,0,0-1.72.29,6.35,6.35,0,0,1-2.37.3c-3.09,0-7.95.59-7.94,1,0,.65,4.44,1.47,8.82,1.62,2.36.08,7.86.24,12.22.36,8.8.24,9.72.33,10.16,1,.65.94-7.54,4.07-14.23,5.45-2.15.44-3.25.88-4,1.62-1.29,1.26-.72,1.87,2.77,3,1.36.42,2.46,1,2.45,1.24s.37.67.84.93c1.35.72,1,1.46-1,2a37.29,37.29,0,0,0-4.39,1.77,10.81,10.81,0,0,1-5.45,1.32c-2.12.08-3.15.28-3.89.78-.56.36-.89.77-.74.91s0,.23-.33.23a2.44,2.44,0,0,0-1.31.68c-.39.38-.51.59-.26.47.61-.29,2.2.61,1.73,1-.21.18.08.24.69.16s0,.12-1.3.45a22,22,0,0,1-4.25.59,21.73,21.73,0,0,0-3.38.29c-1.12.22-1.52.2-1.53-.08s-.27-.14-.61.15c-1.14,1-.07,2,2.84,2.84a13.31,13.31,0,0,1,3.63,1.47,8.4,8.4,0,0,0,3.18,1.1c4.71.76,5.38,2.35,1.24,2.94-2.57.37-3.82,1.36-3.09,2.42.38.55.36.81-.06.8-1.09,0-2.15.76-2.12,1.51s0,.75-5,1.32a13.84,13.84,0,0,0-3.27,1,29.68,29.68,0,0,1-3.43,1.22c-.9.24-1.64.63-1.65.87,0,.57-2.15,1.14-4.69,1.27-2.77.14-3.91.51-4.06,1.32s2.14,2.12,3.33,2.12c.72,0,4,1.78,4,2.16s-2.15.87-6.25,1c-2.24.09-5.4.3-7,.47-2.69.28-12.27,1.09-14.46,1.21-.91,0-1.35,1.14-.46,1.15.26,0,.21.25-.13.57s-.43.66-.21.78c.74.39.32,4.27-.51,4.71a12.21,12.21,0,0,1-3.49.5c-2.4.07-4,.54-3.48,1,.11.1-.19.35-.64.56s-.84.29-.83.17-.31-.07-.7.13a1.49,1.49,0,0,1-1.46,0,4.13,4.13,0,0,0-2.54,0c-3,.62-2.06,1.55,2,1.94,4.51.45,5.51.66,4.81,1-.19.1-4.37.2-9.29.24-10.45.07-11.66.31-12.6,2.55a7.55,7.55,0,0,1-2,2.45,6.42,6.42,0,0,0-2.42,3.18c0,.16-.93.34-2,.39-1.35.06-2.07.27-2.29.67a.76.76,0,0,1-.83.42c-.29-.09-.52,0-.53.14a8,8,0,0,1-2.7,1.11c-4.19,1.24-4.81,2.27-1.74,2.9,1.43.29,1.49.52.47,1.81-.75.94,1.16,1.56,7.46,2.4,6.1.81,7.8,1.37,6,2-1.1.37-9.06,0-21.58-1.06-5.67-.47-8.06-.24-9.37.89s-2.65,1.47-6.56,1.61c-3.23.12-6.27.94-6.3,1.7,0,.47,2.57.92,5.57,1,2.25,0,4.9.86,3.59,1.11a7.44,7.44,0,0,0-1.64.59c-.49.24-.89.36-.88.26,0-.36-3.59.78-4.32,1.37a12.13,12.13,0,0,1-5.21,1.72c-3-.11-7,.08-7.05.33,0,.47,3,1.84,3.65,1.64.32-.1.4,0,.17.15s-.13.42.2.53.43.33.23.49,0,.51.34.76c1.12.72,0,1-4.5,1.15-2.26.07-5.3.26-6.76.42s-6.36.57-10.9.91-9.72.88-11.54,1.19a46.74,46.74,0,0,1-6.92.55,69.17,69.17,0,0,0-7.92.59c-4,.57-5.42.59-24.81.35-11.3-.14-22.79-.32-25.53-.41-7.15-.22-15.93-.59-17.13-.72-.57-.06-7.44-.23-15.27-.38-11.19-.21-15.93-.17-22.17.17-4.37.25-12.4.51-17.85.59s-10.87.2-12.05.27c-4.07.24-18,.66-26.25.79-4.52.07-12.72.24-18.22.38s-16.6.3-24.67.36-15.48.17-16.45.22-7.61.15-14.75.23-13.76.18-14.69.24c-1.81.11-6.26.24-22,.69-12.35.35-21.63.75-29.28,1.26-3.33.22-7.07.4-8.3.4a27.8,27.8,0,0,0-4,.27c-.94.15-3.38.34-5.42.42s-6.28.4-9.43.72-7.3.65-9.24.73-5.51.27-7.94.42-6,.34-8,.42-6.4.34-9.91.58-8.54.51-11.18.6-6.32.26-8.17.38S511,135,507,135s-9.19.15-11.62.29c-4.8.28-15,.52-22.93.55-2.74,0-6.18.12-7.64.26s-11.51.28-22.33.32-20.24.13-20.94.2-6.38.2-12.63.29-12.7.19-14.31.24-7.57.15-13.22.22-12.54.22-15.28.32-5.27.14-5.59.1-4.42,0-9.11.2-11.17.36-14.4.44-6.81.19-7.94.26-5.63.19-10,.27-8.07.21-8.23.26-3.61.17-7.65.26-7.88.22-8.52.28c-1.19.12-42.8.33-60.79.31-5.33,0-14.18-.13-19.66-.27ZM94.77,101.45c.3,0,.06-.3-.52-.64-.91-.54-1.65-.62-5.16-.56a16.22,16.22,0,0,0-4.32.4c-.32.47,3.73,1,6.83.9ZM109.3,84.83c0-.07-.26-.13-.59-.13s-.59.14-.6.32.26.24.58.13S109.29,84.91,109.3,84.83ZM79.72,75.59a2.16,2.16,0,0,0-.9-.3c-.52-.11-.76-.06-.56.11s1.45.44,1.46.19Zm6.92-9.7c-.57-.31-.64-.27-.34.17s.53.47.72.37,0-.34-.38-.54Zm4.84-3.65c-.56-.3-.63-.27-.33.17s.53.47.71.38,0-.34-.38-.55Zm-4.4-1.77a1.25,1.25,0,0,0-.61-.31.3.3,0,0,0-.27.31c0,.16.26.3.61.31S87.27,60.64,87.08,60.47ZM111,46a2.15,2.15,0,0,0-1.12,0c-.2.1.14.17.76.16s.83-.08.36-.18Zm-.08-.8c-.88-.39-2.28-1.58-2.27-1.94,0-.1.41,0,.89.2,1.15.51,1.84.15.89-.46s-2.35-.12-2.38.66c0,.24-.22.37-.48.28s-.5.12-.56.44.26.59,1,.59,1.14.15,1.13.32.58.3,1.31.3c1.13,0,1.2-.06.45-.39Zm-3.49-.67c0-.07.27-.22.6-.32s.59,0,.58.14-.28.32-.6.32S107.38,44.62,107.39,44.54ZM118,38.23c0-.38,0-.51-.21-.3a.81.81,0,0,1-.82.21c-.29-.1-.38,0-.2.3C117.29,39.13,117.92,39,118,38.23ZM115,38c.65-.53-.07-.64-.89-.14-.48.28-.53.46-.14.46a1.9,1.9,0,0,0,1-.32Zm19.47-10.4c0-.07-.39-.2-.87-.3s-.87-.05-.88.12.38.29.87.3.88-.05.88-.12Zm-98.37,81c0-.16.28-.37.6-.48s.59,0,.58.29a.57.57,0,0,1-.61.48C36.37,108.82,36.11,108.68,36.12,108.53Zm24.94-25a2.54,2.54,0,0,1,1.4-.18c.44.07.16.21-.63.32C60.84,83.78,60.62,83.74,61.06,83.52Zm8.35.09c-.6-.21-.64-.31-.13-.34a7.32,7.32,0,0,0,2.32-.35,1.35,1.35,0,0,1,1.12.13c.25.23.16.28-.26.14s-.68,0-.69.26C71.75,84,70.71,84.05,69.41,83.61Zm-3-.7a1.32,1.32,0,0,1,1.26,0c.37.2.13.32-.69.35s-1.09,0-.57-.3Zm15-4.61c0-.27.28-.39.6-.29s.57.32.57.48-.28.29-.6.29A.53.53,0,0,1,81.37,78.3Zm.86-5.1c1-1,1.1-1,1-.27a1.12,1.12,0,0,1-.89.79c-.62.12-.64,0-.07-.52ZM86.17,62c-.49-.17-.21-.31.88-.44,2-.25,2.34-.11.92.34a3.65,3.65,0,0,1-1.8.1ZM98.86,41.4a2.19,2.19,0,0,1,1.13,0c.47.1.32.17-.36.18s-1-.06-.77-.16Zm1.82-1.21a2.14,2.14,0,0,1,1.12,0c.47.1.32.17-.36.18S100.48,40.29,100.68,40.19Zm10.61-3.87c0-.32.13-.5.32-.4s.2.37,0,.59-.33.17-.34-.19Zm21.18-16.89c-.52-.18-.59-.3-.17-.3a1.84,1.84,0,0,1,1,.31c.44.38.23.38-.88,0Z"/></g></g></svg>