<svg xmlns="http://www.w3.org/2000/svg" xmlns:xlink="http://www.w3.org/1999/xlink" viewBox="0 0 556.62 367.89"><defs><style>.cls-1{fill:#ffa62e;}.cls-2{fill:url(#linear-gradient);}</style><linearGradient id="linear-gradient" y1="183.94" x2="556.62" y2="183.94" gradientUnits="userSpaceOnUse"><stop offset="0" stop-color="#ffa62e"/><stop offset="0.26" stop-color="#fda12e"/><stop offset="0.57" stop-color="#f7922d"/><stop offset="0.91" stop-color="#ed7a2c"/><stop offset="1" stop-color="#ea722c"/></linearGradient></defs><title>logo</title><g id="Layer_2" data-name="Layer 2"><g id="Layer_2-2" data-name="Layer 2"><path class="cls-1" d="M51,367.89H0L93.13,51.78h51ZM243.3,55.12q3-10.62-8.5-10.62H71L98.9.51H273q17.3,0,24.27,10.32t2.43,25.78L218.42,312.68h-51ZM142.88,312.68h-51l76.75-260.9h51Z"/><path class="cls-1" d="M360.09,51.78l-23.36,79.79h48.84l-13,44.9H323.38l-26.09,89.19H351.6l-25.79,47H232.38l76.75-260.9Zm50.66-7.28H287l27.91-44H423.5Z"/><path class="cls-1" d="M498.42,55.12q3-10.62-8.49-10.62H400.74l27.91-44h99.2q17.29,0,24.42,10.32t2.58,25.78l-71.6,243a42.93,42.93,0,0,1-8,16.08,43.62,43.62,0,0,1-12,10.16,47.34,47.34,0,0,1-14.41,5.31,81,81,0,0,1-15.62,1.52H346.44l76.44-260.9h51l-64,216.91H428q7.57,0,10-7.89Z"/><polygon class="cls-1" points="315.63 0 535.42 1.24 535.42 43.46 315.63 43.46 315.63 0"/><path class="cls-2" d="M51,367.89H0L93.13,51.78h51ZM243.3,55.12q3-10.62-8.5-10.62H71L98.9.51H273q17.3,0,24.27,10.32t2.43,25.78L218.42,312.68h-51ZM142.88,312.68h-51l76.75-260.9h51Z"/><path class="cls-2" d="M360.09,51.78l-23.36,79.79h48.84l-13,44.9H323.38l-26.09,89.19H351.6l-25.79,47H232.38l76.75-260.9Zm50.66-7.28H287l27.91-44H423.5Z"/><path class="cls-2" d="M498.42,55.12q3-10.62-8.49-10.62H400.74l27.91-44h99.2q17.29,0,24.42,10.32t2.58,25.78l-71.6,243a42.93,42.93,0,0,1-8,16.08,43.62,43.62,0,0,1-12,10.16,47.34,47.34,0,0,1-14.41,5.31,81,81,0,0,1-15.62,1.52H346.44l76.44-260.9h51l-64,216.91H428q7.57,0,10-7.89Z"/><polygon class="cls-2" points="315.63 0 535.42 1.24 535.42 43.46 315.63 43.46 315.63 0"/></g></g></svg>