<svg id="Layer_1" data-name="Layer 1" xmlns="http://www.w3.org/2000/svg" xmlns:xlink="http://www.w3.org/1999/xlink" viewBox="0 0 495.39 580.62"><defs><style>.cls-1{fill:url(#linear-gradient);}.cls-2{fill:url(#linear-gradient-4);}.cls-3{fill:url(#linear-gradient-7);}.cls-4{fill:url(#linear-gradient-11);}.cls-5{fill:url(#linear-gradient-15);}.cls-6{fill:url(#linear-gradient-16);}.cls-7{fill:url(#linear-gradient-17);}.cls-8{fill:url(#linear-gradient-42);}.cls-9{fill:url(#linear-gradient-43);}.cls-10{fill:url(#linear-gradient-44);}</style><linearGradient id="linear-gradient" x1="-8062.78" y1="523.25" x2="-7567.41" y2="523.25" gradientTransform="translate(-7567.39 655.66) rotate(180)" gradientUnits="userSpaceOnUse"><stop offset="0" stop-color="#fbb03b"/><stop offset="0.21" stop-color="#f89738"/><stop offset="0.65" stop-color="#f2592f"/><stop offset="1" stop-color="#ec2227"/></linearGradient><linearGradient id="linear-gradient-4" x1="-8062.78" y1="286.96" x2="-7567.39" y2="286.96" xlink:href="#linear-gradient"/><linearGradient id="linear-gradient-7" x1="2.47" y1="523.25" x2="497.84" y2="523.25" gradientTransform="matrix(1, 0, 0, -1, -2.45, 655.66)" xlink:href="#linear-gradient"/><linearGradient id="linear-gradient-11" x1="2.45" y1="286.96" x2="497.84" y2="286.96" gradientTransform="matrix(1, 0, 0, -1, -2.45, 655.66)" xlink:href="#linear-gradient"/><linearGradient id="linear-gradient-15" x1="2.45" y1="541.81" x2="79.29" y2="541.81" gradientTransform="matrix(1, 0, 0, -1, -2.45, 655.66)" xlink:href="#linear-gradient"/><linearGradient id="linear-gradient-16" x1="421.01" y1="540.17" x2="497.84" y2="540.17" gradientTransform="matrix(1, 0, 0, -1, -2.45, 655.66)" xlink:href="#linear-gradient"/><linearGradient id="linear-gradient-17" x1="173.3" y1="288.26" x2="250.15" y2="288.26" gradientTransform="matrix(1, 0, 0, -1, -2.45, 655.66)" xlink:href="#linear-gradient"/><linearGradient id="linear-gradient-42" x1="2.45" y1="541.81" x2="497.85" y2="541.81" gradientTransform="matrix(1, 0, 0, -1, -2.45, 655.66)" xlink:href="#linear-gradient"/><linearGradient id="linear-gradient-43" x1="2.45" y1="540.17" x2="497.85" y2="540.17" gradientTransform="matrix(1, 0, 0, -1, -2.45, 655.66)" xlink:href="#linear-gradient"/><linearGradient id="linear-gradient-44" x1="2.45" y1="288.26" x2="497.85" y2="288.26" gradientTransform="matrix(1, 0, 0, -1, -2.45, 655.66)" xlink:href="#linear-gradient"/></defs><title>logo</title><polyline class="cls-1" points="418.73 141.29 247.72 264.83 0.02 88.9 0.02 0 247.72 175.91 495.39 0 495.39 85.88"/><polyline class="cls-1" points="418.73 141.29 247.72 264.83 0.02 88.9 0.02 0 247.72 175.91 495.39 0 495.39 85.88"/><polyline class="cls-1" points="418.73 141.29 247.72 264.83 0.02 88.9 0.02 0 247.72 175.91 495.39 0 495.39 85.88"/><polygon class="cls-2" points="247.7 335.36 247.74 417.88 247.7 417.86 76.68 298.65 76.68 366.61 247.72 490.15 418.73 366.63 418.73 211.45 495.39 156.79 495.39 405.36 250.09 579.01 247.72 580.62 0 405.36 0 157.53 247.7 335.36"/><polygon class="cls-2" points="247.7 335.36 247.74 417.88 247.7 417.86 76.68 298.65 76.68 366.61 247.72 490.15 418.73 366.63 418.73 211.45 495.39 156.79 495.39 405.36 250.09 579.01 247.72 580.62 0 405.36 0 157.53 247.7 335.36"/><polygon class="cls-2" points="247.7 335.36 247.74 417.88 247.7 417.86 76.68 298.65 76.68 366.61 247.72 490.15 418.73 366.63 418.73 211.45 495.39 156.79 495.39 405.36 250.09 579.01 247.72 580.62 0 405.36 0 157.53 247.7 335.36"/><polyline class="cls-3" points="418.73 141.29 247.72 264.83 0.02 88.9 0.02 0 247.72 175.91 495.39 0 495.39 85.88"/><polyline class="cls-3" points="418.73 141.29 247.72 264.83 0.02 88.9 0.02 0 247.72 175.91 495.39 0 495.39 85.88"/><polyline class="cls-3" points="418.73 141.29 247.72 264.83 0.02 88.9 0.02 0 247.72 175.91 495.39 0 495.39 85.88"/><polyline class="cls-3" points="418.73 141.29 247.72 264.83 0.02 88.9 0.02 0 247.72 175.91 495.39 0 495.39 85.88"/><polygon class="cls-4" points="247.7 335.36 247.74 417.88 247.7 417.86 76.68 298.65 76.68 366.61 247.72 490.15 418.73 366.63 418.73 211.45 495.39 156.79 495.39 405.36 250.09 579.01 247.72 580.62 0 405.36 0 157.53 247.7 335.36"/><polygon class="cls-4" points="247.7 335.36 247.74 417.88 247.7 417.86 76.68 298.65 76.68 366.61 247.72 490.15 418.73 366.63 418.73 211.45 495.39 156.79 495.39 405.36 250.09 579.01 247.72 580.62 0 405.36 0 157.53 247.7 335.36"/><polygon class="cls-4" points="247.7 335.36 247.74 417.88 247.7 417.86 76.68 298.65 76.68 366.61 247.72 490.15 418.73 366.63 418.73 211.45 495.39 156.79 495.39 405.36 250.09 579.01 247.72 580.62 0 405.36 0 157.53 247.7 335.36"/><polygon class="cls-4" points="247.7 335.36 247.74 417.88 247.7 417.86 76.68 298.65 76.68 366.61 247.72 490.15 418.73 366.63 418.73 211.45 495.39 156.79 495.39 405.36 250.09 579.01 247.72 580.62 0 405.36 0 157.53 247.7 335.36"/><polygon class="cls-5" points="0 40.86 0 131.56 76.84 186.84 76.84 93.34 0 40.86"/><polygon class="cls-6" points="495.39 43.89 495.39 132.51 418.55 187.09 418.55 96.37 495.39 43.89"/><polygon class="cls-7" points="170.85 296.85 170.85 385.46 247.7 437.96 247.7 349.32 170.85 296.85"/><polyline class="cls-3" points="418.73 141.29 247.72 264.83 0.02 88.9 0.02 0 247.72 175.91 495.39 0 495.39 85.88"/><polyline class="cls-3" points="418.73 141.29 247.72 264.83 0.02 88.9 0.02 0 247.72 175.91 495.39 0 495.39 85.88"/><polyline class="cls-3" points="418.73 141.29 247.72 264.83 0.02 88.9 0.02 0 247.72 175.91 495.39 0 495.39 85.88"/><polyline class="cls-3" points="418.73 141.29 247.72 264.83 0.02 88.9 0.02 0 247.72 175.91 495.39 0 495.39 85.88"/><polygon class="cls-4" points="247.7 335.36 247.74 417.88 247.7 417.86 76.68 298.65 76.68 366.61 247.72 490.15 418.73 366.63 418.73 211.45 495.39 156.79 495.39 405.36 250.09 579.01 247.72 580.62 0 405.36 0 157.53 247.7 335.36"/><polygon class="cls-4" points="247.7 335.36 247.74 417.88 247.7 417.86 76.68 298.65 76.68 366.61 247.72 490.15 418.73 366.63 418.73 211.45 495.39 156.79 495.39 405.36 250.09 579.01 247.72 580.62 0 405.36 0 157.53 247.7 335.36"/><polygon class="cls-4" points="247.7 335.36 247.74 417.88 247.7 417.86 76.68 298.65 76.68 366.61 247.72 490.15 418.73 366.63 418.73 211.45 495.39 156.79 495.39 405.36 250.09 579.01 247.72 580.62 0 405.36 0 157.53 247.7 335.36"/><polygon class="cls-4" points="247.7 335.36 247.74 417.88 247.7 417.86 76.68 298.65 76.68 366.61 247.72 490.15 418.73 366.63 418.73 211.45 495.39 156.79 495.39 405.36 250.09 579.01 247.72 580.62 0 405.36 0 157.53 247.7 335.36"/><polyline class="cls-3" points="418.73 141.29 247.72 264.83 0.02 88.9 0.02 0 247.72 175.91 495.39 0 495.39 85.88"/><polyline class="cls-3" points="418.73 141.29 247.72 264.83 0.02 88.9 0.02 0 247.72 175.91 495.39 0 495.39 85.88"/><polyline class="cls-3" points="418.73 141.29 247.72 264.83 0.02 88.9 0.02 0 247.72 175.91 495.39 0 495.39 85.88"/><polyline class="cls-3" points="418.73 141.29 247.72 264.83 0.02 88.9 0.02 0 247.72 175.91 495.39 0 495.39 85.88"/><polygon class="cls-4" points="247.7 335.36 247.74 417.88 247.7 417.86 76.68 298.65 76.68 366.61 247.72 490.15 418.73 366.63 418.73 211.45 495.39 156.79 495.39 405.36 250.09 579.01 247.72 580.62 0 405.36 0 157.53 247.7 335.36"/><polygon class="cls-4" points="247.7 335.36 247.74 417.88 247.7 417.86 76.68 298.65 76.68 366.61 247.72 490.15 418.73 366.63 418.73 211.45 495.39 156.79 495.39 405.36 250.09 579.01 247.72 580.62 0 405.36 0 157.53 247.7 335.36"/><polygon class="cls-4" points="247.7 335.36 247.74 417.88 247.7 417.86 76.68 298.65 76.68 366.61 247.72 490.15 418.73 366.63 418.73 211.45 495.39 156.79 495.39 405.36 250.09 579.01 247.72 580.62 0 405.36 0 157.53 247.7 335.36"/><polygon class="cls-4" points="247.7 335.36 247.74 417.88 247.7 417.86 76.68 298.65 76.68 366.61 247.72 490.15 418.73 366.63 418.73 211.45 495.39 156.79 495.39 405.36 250.09 579.01 247.72 580.62 0 405.36 0 157.53 247.7 335.36"/><polyline class="cls-3" points="418.73 141.29 247.72 264.83 0.02 88.9 0.02 0 247.72 175.91 495.39 0 495.39 85.88"/><polyline class="cls-3" points="418.73 141.29 247.72 264.83 0.02 88.9 0.02 0 247.72 175.91 495.39 0 495.39 85.88"/><polyline class="cls-3" points="418.73 141.29 247.72 264.83 0.02 88.9 0.02 0 247.72 175.91 495.39 0 495.39 85.88"/><polyline class="cls-3" points="418.73 141.29 247.72 264.83 0.02 88.9 0.02 0 247.72 175.91 495.39 0 495.39 85.88"/><polygon class="cls-4" points="247.7 335.36 247.74 417.88 247.7 417.86 76.68 298.65 76.68 366.61 247.72 490.15 418.73 366.63 418.73 211.45 495.39 156.79 495.39 405.36 250.09 579.01 247.72 580.62 0 405.36 0 157.53 247.7 335.36"/><polygon class="cls-4" points="247.7 335.36 247.74 417.88 247.7 417.86 76.68 298.65 76.68 366.61 247.72 490.15 418.73 366.63 418.73 211.45 495.39 156.79 495.39 405.36 250.09 579.01 247.72 580.62 0 405.36 0 157.53 247.7 335.36"/><polygon class="cls-4" points="247.7 335.36 247.74 417.88 247.7 417.86 76.68 298.65 76.68 366.61 247.72 490.15 418.73 366.63 418.73 211.45 495.39 156.79 495.39 405.36 250.09 579.01 247.72 580.62 0 405.36 0 157.53 247.7 335.36"/><polygon class="cls-4" points="247.7 335.36 247.74 417.88 247.7 417.86 76.68 298.65 76.68 366.61 247.72 490.15 418.73 366.63 418.73 211.45 495.39 156.79 495.39 405.36 250.09 579.01 247.72 580.62 0 405.36 0 157.53 247.7 335.36"/><polygon class="cls-8" points="0 40.86 0 131.56 76.84 186.84 76.84 93.34 0 40.86"/><polygon class="cls-9" points="495.39 43.89 495.39 132.51 418.55 187.09 418.55 96.37 495.39 43.89"/><polygon class="cls-10" points="170.85 296.85 170.85 385.46 247.7 437.96 247.7 349.32 170.85 296.85"/></svg>