<svg xmlns="http://www.w3.org/2000/svg" xmlns:xlink="http://www.w3.org/1999/xlink" viewBox="0 0 800 800"><defs><style>.cls-1{fill:#fff;}.cls-2{fill:url(#linear-gradient);}.cls-3{clip-path:url(#clip-path);}.cls-4{clip-path:url(#clip-path-2);}.cls-5{clip-path:url(#clip-path-3);}.cls-6{clip-path:url(#clip-path-4);}</style><linearGradient id="linear-gradient" x1="177" y1="400" x2="623" y2="400" gradientUnits="userSpaceOnUse"><stop offset="0" stop-color="#ffa62e"/><stop offset="0.31" stop-color="#f8872d"/><stop offset="0.76" stop-color="#ee5d2c"/><stop offset="1" stop-color="#ea4d2c"/></linearGradient><clipPath id="clip-path"><polygon class="cls-1" points="420.27 319 539.68 319.58 539.68 339.43 420.27 339.43 420.27 319"/></clipPath><clipPath id="clip-path-2"><path class="cls-1" d="M276.49,492H248.8l50.6-148.62h27.69ZM381,344.92q1.65-5-4.62-5h-89l15.16-20.68h94.6q9.39,0,13.19,4.85t1.31,12.13L367.46,466H339.78ZM326.43,466H298.74l41.7-122.66h27.68Z"/></clipPath><clipPath id="clip-path-3"><path class="cls-1" d="M444.43,343.35l-12.69,37.51h26.53L451.19,402h-26.7L410.31,443.9h29.5l-14,22.11H375l41.7-122.66ZM472,339.92H404.71l15.16-20.68h59Z"/></clipPath><clipPath id="clip-path-4"><path class="cls-1" d="M519.58,344.92q1.65-5-4.61-5H466.51l15.16-20.68h53.9q9.39,0,13.26,4.85t1.41,12.13l-38.9,114.25A19.4,19.4,0,0,1,507,458a23.06,23.06,0,0,1-6.51,4.77,28.47,28.47,0,0,1-7.83,2.5,50.12,50.12,0,0,1-8.48.71H437l41.53-122.66h27.69l-34.77,102h9.88a5.24,5.24,0,0,0,5.44-3.71Z"/></clipPath></defs><title>med logo round gradient </title><g id="Layer_2" data-name="Layer 2"><circle class="cls-2" cx="400" cy="400" r="223"/><path class="cls-1" d="M276.49,492H248.8l50.6-148.62h27.69ZM381,344.92q1.65-5-4.62-5h-89l15.16-20.68h94.6q9.39,0,13.19,4.85t1.31,12.13L367.46,466H339.78ZM326.43,466H298.74l41.7-122.66h27.68Z"/><path class="cls-1" d="M444.43,343.35l-12.69,37.51h26.53L451.19,402h-26.7L410.31,443.9h29.5l-14,22.11H375l41.7-122.66ZM472,339.92H404.71l15.16-20.68h59Z"/><path class="cls-1" d="M519.58,344.92q1.65-5-4.61-5H466.51l15.16-20.68h53.9q9.39,0,13.26,4.85t1.41,12.13l-38.9,114.25A19.4,19.4,0,0,1,507,458a23.06,23.06,0,0,1-6.51,4.77,28.47,28.47,0,0,1-7.83,2.5,50.12,50.12,0,0,1-8.48.71H437l41.53-122.66h27.69l-34.77,102h9.88a5.24,5.24,0,0,0,5.44-3.71Z"/><polygon class="cls-1" points="420.27 319 539.68 319.58 539.68 339.43 420.27 339.43 420.27 319"/><g class="cls-3"><rect class="cls-1" x="420.27" y="319" width="1.34" height="20.43"/><rect class="cls-1" x="421.61" y="319" width="1.34" height="20.43"/><rect class="cls-1" x="422.96" y="319" width="1.34" height="20.43"/><rect class="cls-1" x="424.3" y="319" width="1.34" height="20.43"/><rect class="cls-1" x="425.64" y="319" width="1.34" height="20.43"/><rect class="cls-1" x="426.98" y="319" width="1.34" height="20.43"/><rect class="cls-1" x="428.32" y="319" width="1.34" height="20.43"/><rect class="cls-1" x="429.66" y="319" width="1.34" height="20.43"/><rect class="cls-1" x="431.01" y="319" width="1.34" height="20.43"/><rect class="cls-1" x="432.35" y="319" width="1.34" height="20.43"/><rect class="cls-1" x="433.69" y="319" width="1.34" height="20.43"/><rect class="cls-1" x="435.03" y="319" width="1.34" height="20.43"/><rect class="cls-1" x="436.37" y="319" width="1.34" height="20.43"/><rect class="cls-1" x="437.71" y="319" width="1.34" height="20.43"/><rect class="cls-1" x="439.06" y="319" width="1.34" height="20.43"/><rect class="cls-1" x="440.4" y="319" width="1.34" height="20.43"/><rect class="cls-1" x="441.74" y="319" width="1.34" height="20.43"/><rect class="cls-1" x="443.08" y="319" width="1.34" height="20.43"/><rect class="cls-1" x="444.42" y="319" width="1.34" height="20.43"/><rect class="cls-1" x="445.76" y="319" width="1.34" height="20.43"/><rect class="cls-1" x="447.11" y="319" width="1.34" height="20.43"/><rect class="cls-1" x="448.45" y="319" width="1.34" height="20.43"/><rect class="cls-1" x="449.79" y="319" width="1.34" height="20.43"/><rect class="cls-1" x="451.13" y="319" width="1.34" height="20.43"/><rect class="cls-1" x="452.47" y="319" width="1.34" height="20.43"/><rect class="cls-1" x="453.81" y="319" width="1.34" height="20.43"/><rect class="cls-1" x="455.16" y="319" width="1.34" height="20.43"/><rect class="cls-1" x="456.5" y="319" width="1.34" height="20.43"/><rect class="cls-1" x="457.84" y="319" width="1.34" height="20.43"/><rect class="cls-1" x="459.18" y="319" width="1.34" height="20.43"/><rect class="cls-1" x="460.52" y="319" width="1.34" height="20.43"/><rect class="cls-1" x="461.86" y="319" width="1.34" height="20.43"/><rect class="cls-1" x="463.21" y="319" width="1.34" height="20.43"/><rect class="cls-1" x="464.55" y="319" width="1.34" height="20.43"/><rect class="cls-1" x="465.89" y="319" width="1.34" height="20.43"/><rect class="cls-1" x="467.23" y="319" width="1.34" height="20.43"/><rect class="cls-1" x="468.57" y="319" width="1.34" height="20.43"/><rect class="cls-1" x="469.91" y="319" width="1.34" height="20.43"/><rect class="cls-1" x="471.26" y="319" width="1.34" height="20.43"/><rect class="cls-1" x="472.6" y="319" width="1.34" height="20.43"/><rect class="cls-1" x="473.94" y="319" width="1.34" height="20.43"/><rect class="cls-1" x="475.28" y="319" width="1.34" height="20.43"/><rect class="cls-1" x="476.62" y="319" width="1.34" height="20.43"/><rect class="cls-1" x="477.96" y="319" width="1.34" height="20.43"/><rect class="cls-1" x="479.31" y="319" width="1.34" height="20.43"/><rect class="cls-1" x="480.65" y="319" width="1.34" height="20.43"/><rect class="cls-1" x="481.99" y="319" width="1.34" height="20.43"/><rect class="cls-1" x="483.33" y="319" width="1.34" height="20.43"/><rect class="cls-1" x="484.67" y="319" width="1.34" height="20.43"/><rect class="cls-1" x="486.01" y="319" width="1.34" height="20.43"/><rect class="cls-1" x="487.36" y="319" width="1.34" height="20.43"/><rect class="cls-1" x="488.7" y="319" width="1.34" height="20.43"/><rect class="cls-1" x="490.04" y="319" width="1.34" height="20.43"/><rect class="cls-1" x="491.38" y="319" width="1.34" height="20.43"/><rect class="cls-1" x="492.72" y="319" width="1.34" height="20.43"/><rect class="cls-1" x="494.06" y="319" width="1.34" height="20.43"/><rect class="cls-1" x="495.41" y="319" width="1.34" height="20.43"/><rect class="cls-1" x="496.75" y="319" width="1.34" height="20.43"/><rect class="cls-1" x="498.09" y="319" width="1.34" height="20.43"/><rect class="cls-1" x="499.43" y="319" width="1.34" height="20.43"/><rect class="cls-1" x="500.77" y="319" width="1.34" height="20.43"/><rect class="cls-1" x="502.11" y="319" width="1.34" height="20.43"/><rect class="cls-1" x="503.46" y="319" width="1.34" height="20.43"/><rect class="cls-1" x="504.8" y="319" width="1.34" height="20.43"/><rect class="cls-1" x="506.14" y="319" width="1.34" height="20.43"/><rect class="cls-1" x="507.48" y="319" width="1.34" height="20.43"/><rect class="cls-1" x="508.82" y="319" width="1.34" height="20.43"/><rect class="cls-1" x="510.16" y="319" width="1.34" height="20.43"/><rect class="cls-1" x="511.51" y="319" width="1.34" height="20.43"/><rect class="cls-1" x="512.85" y="319" width="1.34" height="20.43"/><rect class="cls-1" x="514.19" y="319" width="1.34" height="20.43"/><rect class="cls-1" x="515.53" y="319" width="1.34" height="20.43"/><rect class="cls-1" x="516.87" y="319" width="1.34" height="20.43"/><rect class="cls-1" x="518.21" y="319" width="1.34" height="20.43"/><rect class="cls-1" x="519.56" y="319" width="1.34" height="20.43"/><rect class="cls-1" x="520.9" y="319" width="1.34" height="20.43"/><rect class="cls-1" x="522.24" y="319" width="1.34" height="20.43"/><rect class="cls-1" x="523.58" y="319" width="1.34" height="20.43"/><rect class="cls-1" x="524.92" y="319" width="1.34" height="20.43"/><rect class="cls-1" x="526.26" y="319" width="1.34" height="20.43"/><rect class="cls-1" x="527.61" y="319" width="1.34" height="20.43"/><rect class="cls-1" x="528.95" y="319" width="1.34" height="20.43"/><rect class="cls-1" x="530.29" y="319" width="1.34" height="20.43"/><rect class="cls-1" x="531.63" y="319" width="1.34" height="20.43"/><rect class="cls-1" x="532.97" y="319" width="1.34" height="20.43"/><rect class="cls-1" x="534.31" y="319" width="1.34" height="20.43"/><rect class="cls-1" x="535.66" y="319" width="1.34" height="20.43"/><rect class="cls-1" x="537" y="319" width="1.34" height="20.43"/><rect class="cls-1" x="538.34" y="319" width="1.34" height="20.43"/></g><path class="cls-1" d="M276.49,492H248.8l50.6-148.62h27.69ZM381,344.92q1.65-5-4.62-5h-89l15.16-20.68h94.6q9.39,0,13.19,4.85t1.31,12.13L367.46,466H339.78ZM326.43,466H298.74l41.7-122.66h27.68Z"/><g class="cls-4"><rect class="cls-1" x="298.74" y="343.35" width="1.03" height="122.67"/><rect class="cls-1" x="299.77" y="343.35" width="3.4" height="122.67"/><rect class="cls-1" x="303.17" y="343.35" width="3.4" height="122.67"/><rect class="cls-1" x="306.56" y="343.35" width="3.4" height="122.67"/><rect class="cls-1" x="309.96" y="343.35" width="3.4" height="122.67"/><rect class="cls-1" x="313.36" y="343.35" width="3.4" height="122.67"/><rect class="cls-1" x="316.76" y="343.35" width="3.4" height="122.67"/><rect class="cls-1" x="320.15" y="343.35" width="3.4" height="122.67"/><rect class="cls-1" x="323.55" y="343.35" width="3.4" height="122.67"/><rect class="cls-1" x="326.95" y="343.35" width="3.4" height="122.67"/><rect class="cls-1" x="330.35" y="343.35" width="3.4" height="122.67"/><rect class="cls-1" x="333.74" y="343.35" width="3.4" height="122.67"/><rect class="cls-1" x="337.14" y="343.35" width="3.4" height="122.67"/><rect class="cls-1" x="340.54" y="343.35" width="3.4" height="122.67"/><rect class="cls-1" x="343.94" y="343.35" width="3.4" height="122.67"/><rect class="cls-1" x="347.34" y="343.35" width="3.4" height="122.67"/><rect class="cls-1" x="350.73" y="343.35" width="3.4" height="122.67"/><rect class="cls-1" x="354.13" y="343.35" width="3.4" height="122.67"/><rect class="cls-1" x="357.53" y="343.35" width="3.4" height="122.67"/><rect class="cls-1" x="360.93" y="343.35" width="3.4" height="122.67"/><rect class="cls-1" x="364.32" y="343.35" width="3.4" height="122.67"/><rect class="cls-1" x="367.72" y="343.35" width="0.4" height="122.67"/><rect class="cls-1" x="287.37" y="319.24" width="2.21" height="146.77"/><rect class="cls-1" x="289.57" y="319.24" width="3.4" height="146.77"/><rect class="cls-1" x="292.97" y="319.24" width="3.4" height="146.77"/><rect class="cls-1" x="296.37" y="319.24" width="3.4" height="146.77"/><rect class="cls-1" x="299.77" y="319.24" width="3.4" height="146.77"/><rect class="cls-1" x="303.17" y="319.24" width="3.4" height="146.77"/><rect class="cls-1" x="306.56" y="319.24" width="3.4" height="146.77"/><rect class="cls-1" x="309.96" y="319.24" width="3.4" height="146.77"/><rect class="cls-1" x="313.36" y="319.24" width="3.4" height="146.77"/><rect class="cls-1" x="316.76" y="319.24" width="3.4" height="146.77"/><rect class="cls-1" x="320.15" y="319.24" width="3.4" height="146.77"/><rect class="cls-1" x="323.55" y="319.24" width="3.4" height="146.77"/><rect class="cls-1" x="326.95" y="319.24" width="3.4" height="146.77"/><rect class="cls-1" x="330.35" y="319.24" width="3.4" height="146.77"/><rect class="cls-1" x="333.74" y="319.24" width="3.4" height="146.77"/><rect class="cls-1" x="337.14" y="319.24" width="3.4" height="146.77"/><rect class="cls-1" x="340.54" y="319.24" width="3.4" height="146.77"/><rect class="cls-1" x="343.94" y="319.24" width="3.4" height="146.77"/><rect class="cls-1" x="347.34" y="319.24" width="3.4" height="146.77"/><rect class="cls-1" x="350.73" y="319.24" width="3.4" height="146.77"/><rect class="cls-1" x="354.13" y="319.24" width="3.4" height="146.77"/><rect class="cls-1" x="357.53" y="319.24" width="3.4" height="146.77"/><rect class="cls-1" x="360.93" y="319.24" width="3.4" height="146.77"/><rect class="cls-1" x="364.32" y="319.24" width="3.4" height="146.77"/><rect class="cls-1" x="367.72" y="319.24" width="3.4" height="146.77"/><rect class="cls-1" x="371.12" y="319.24" width="3.4" height="146.77"/><rect class="cls-1" x="374.52" y="319.24" width="3.4" height="146.77"/><rect class="cls-1" x="377.91" y="319.24" width="3.4" height="146.77"/><rect class="cls-1" x="381.31" y="319.24" width="3.4" height="146.77"/><rect class="cls-1" x="384.71" y="319.24" width="3.4" height="146.77"/><rect class="cls-1" x="388.11" y="319.24" width="3.4" height="146.77"/><rect class="cls-1" x="391.51" y="319.24" width="3.4" height="146.77"/><rect class="cls-1" x="394.9" y="319.24" width="3.4" height="146.77"/><rect class="cls-1" x="398.3" y="319.24" width="3.4" height="146.77"/><rect class="cls-1" x="401.7" y="319.24" width="3.4" height="146.77"/><rect class="cls-1" x="405.1" y="319.24" width="3.4" height="146.77"/><rect class="cls-1" x="408.49" y="319.24" width="3.4" height="146.77"/><rect class="cls-1" x="411.89" y="319.24" width="1.39" height="146.77"/><rect class="cls-1" x="248.8" y="343.35" width="3.4" height="148.63"/><rect class="cls-1" x="252.2" y="343.35" width="3.4" height="148.63"/><rect class="cls-1" x="255.6" y="343.35" width="3.4" height="148.63"/><rect class="cls-1" x="259" y="343.35" width="3.4" height="148.63"/><rect class="cls-1" x="262.39" y="343.35" width="3.4" height="148.63"/><rect class="cls-1" x="265.79" y="343.35" width="3.4" height="148.63"/><rect class="cls-1" x="269.19" y="343.35" width="3.4" height="148.63"/><rect class="cls-1" x="272.59" y="343.35" width="3.4" height="148.63"/><rect class="cls-1" x="275.98" y="343.35" width="3.4" height="148.63"/><rect class="cls-1" x="279.38" y="343.35" width="3.4" height="148.63"/><rect class="cls-1" x="282.78" y="343.35" width="3.4" height="148.63"/><rect class="cls-1" x="286.18" y="343.35" width="3.4" height="148.63"/><rect class="cls-1" x="289.57" y="343.35" width="3.4" height="148.63"/><rect class="cls-1" x="292.97" y="343.35" width="3.4" height="148.63"/><rect class="cls-1" x="296.37" y="343.35" width="3.4" height="148.63"/><rect class="cls-1" x="299.77" y="343.35" width="3.4" height="148.63"/><rect class="cls-1" x="303.17" y="343.35" width="3.4" height="148.63"/><rect class="cls-1" x="306.56" y="343.35" width="3.4" height="148.63"/><rect class="cls-1" x="309.96" y="343.35" width="3.4" height="148.63"/><rect class="cls-1" x="313.36" y="343.35" width="3.4" height="148.63"/><rect class="cls-1" x="316.76" y="343.35" width="3.4" height="148.63"/><rect class="cls-1" x="320.15" y="343.35" width="3.4" height="148.63"/><rect class="cls-1" x="323.55" y="343.35" width="3.4" height="148.63"/><rect class="cls-1" x="326.95" y="343.35" width="0.14" height="148.63"/></g><path class="cls-1" d="M444.43,343.35l-12.69,37.51h26.53L451.19,402h-26.7L410.31,443.9h29.5l-14,22.11H375l41.7-122.66ZM472,339.92H404.71l15.16-20.68h59Z"/><g class="cls-5"><rect class="cls-1" x="404.71" y="319.24" width="0.39" height="20.68"/><rect class="cls-1" x="405.1" y="319.24" width="3.4" height="20.68"/><rect class="cls-1" x="408.49" y="319.24" width="3.4" height="20.68"/><rect class="cls-1" x="411.89" y="319.24" width="3.4" height="20.68"/><rect class="cls-1" x="415.29" y="319.24" width="3.4" height="20.68"/><rect class="cls-1" x="418.69" y="319.24" width="3.4" height="20.68"/><rect class="cls-1" x="422.09" y="319.24" width="3.4" height="20.68"/><rect class="cls-1" x="425.48" y="319.24" width="3.4" height="20.68"/><rect class="cls-1" x="428.88" y="319.24" width="3.4" height="20.68"/><rect class="cls-1" x="432.28" y="319.24" width="3.4" height="20.68"/><rect class="cls-1" x="435.68" y="319.24" width="3.4" height="20.68"/><rect class="cls-1" x="439.07" y="319.24" width="3.4" height="20.68"/><rect class="cls-1" x="442.47" y="319.24" width="3.4" height="20.68"/><rect class="cls-1" x="445.87" y="319.24" width="3.4" height="20.68"/><rect class="cls-1" x="449.27" y="319.24" width="3.4" height="20.68"/><rect class="cls-1" x="452.66" y="319.24" width="3.4" height="20.68"/><rect class="cls-1" x="456.06" y="319.24" width="3.4" height="20.68"/><rect class="cls-1" x="459.46" y="319.24" width="3.4" height="20.68"/><rect class="cls-1" x="462.86" y="319.24" width="3.4" height="20.68"/><rect class="cls-1" x="466.26" y="319.24" width="3.4" height="20.68"/><rect class="cls-1" x="469.65" y="319.24" width="3.4" height="20.68"/><rect class="cls-1" x="473.05" y="319.24" width="3.4" height="20.68"/><rect class="cls-1" x="476.45" y="319.24" width="2.43" height="20.68"/><rect class="cls-1" x="375.04" y="343.35" width="2.87" height="122.67"/><rect class="cls-1" x="377.91" y="343.35" width="3.4" height="122.67"/><rect class="cls-1" x="381.31" y="343.35" width="3.4" height="122.67"/><rect class="cls-1" x="384.71" y="343.35" width="3.4" height="122.67"/><rect class="cls-1" x="388.11" y="343.35" width="3.4" height="122.67"/><rect class="cls-1" x="391.51" y="343.35" width="3.4" height="122.67"/><rect class="cls-1" x="394.9" y="343.35" width="3.4" height="122.67"/><rect class="cls-1" x="398.3" y="343.35" width="3.4" height="122.67"/><rect class="cls-1" x="401.7" y="343.35" width="3.4" height="122.67"/><rect class="cls-1" x="405.1" y="343.35" width="3.4" height="122.67"/><rect class="cls-1" x="408.49" y="343.35" width="3.4" height="122.67"/><rect class="cls-1" x="411.89" y="343.35" width="3.4" height="122.67"/><rect class="cls-1" x="415.29" y="343.35" width="3.4" height="122.67"/><rect class="cls-1" x="418.69" y="343.35" width="3.4" height="122.67"/><rect class="cls-1" x="422.09" y="343.35" width="3.4" height="122.67"/><rect class="cls-1" x="425.48" y="343.35" width="3.4" height="122.67"/><rect class="cls-1" x="428.88" y="343.35" width="3.4" height="122.67"/><rect class="cls-1" x="432.28" y="343.35" width="3.4" height="122.67"/><rect class="cls-1" x="435.68" y="343.35" width="3.4" height="122.67"/><rect class="cls-1" x="439.07" y="343.35" width="3.4" height="122.67"/><rect class="cls-1" x="442.47" y="343.35" width="3.4" height="122.67"/><rect class="cls-1" x="445.87" y="343.35" width="3.4" height="122.67"/><rect class="cls-1" x="449.27" y="343.35" width="3.4" height="122.67"/><rect class="cls-1" x="452.66" y="343.35" width="3.4" height="122.67"/><rect class="cls-1" x="456.06" y="343.35" width="2.21" height="122.67"/></g><path class="cls-1" d="M519.58,344.92q1.65-5-4.61-5H466.51l15.16-20.68h53.9q9.39,0,13.26,4.85t1.41,12.13l-38.9,114.25A19.4,19.4,0,0,1,507,458a23.06,23.06,0,0,1-6.51,4.77,28.47,28.47,0,0,1-7.83,2.5,50.12,50.12,0,0,1-8.48.71H437l41.53-122.66h27.69l-34.77,102h9.88a5.24,5.24,0,0,0,5.44-3.71Z"/><g class="cls-6"><rect class="cls-1" x="437.01" y="319.24" width="2.06" height="146.77"/><rect class="cls-1" x="439.07" y="319.24" width="3.4" height="146.77"/><rect class="cls-1" x="442.47" y="319.24" width="3.4" height="146.77"/><rect class="cls-1" x="445.87" y="319.24" width="3.4" height="146.77"/><rect class="cls-1" x="449.27" y="319.24" width="3.4" height="146.77"/><rect class="cls-1" x="452.66" y="319.24" width="3.4" height="146.77"/><rect class="cls-1" x="456.06" y="319.24" width="3.4" height="146.77"/><rect class="cls-1" x="459.46" y="319.24" width="3.4" height="146.77"/><rect class="cls-1" x="462.86" y="319.24" width="3.4" height="146.77"/><rect class="cls-1" x="466.26" y="319.24" width="3.4" height="146.77"/><rect class="cls-1" x="469.65" y="319.24" width="3.4" height="146.77"/><rect class="cls-1" x="473.05" y="319.24" width="3.4" height="146.77"/><rect class="cls-1" x="476.45" y="319.24" width="3.4" height="146.77"/><rect class="cls-1" x="479.85" y="319.24" width="3.4" height="146.77"/><rect class="cls-1" x="483.24" y="319.24" width="3.4" height="146.77"/><rect class="cls-1" x="486.64" y="319.24" width="3.4" height="146.77"/><rect class="cls-1" x="490.04" y="319.24" width="3.4" height="146.77"/><rect class="cls-1" x="493.44" y="319.24" width="3.4" height="146.77"/><rect class="cls-1" x="496.83" y="319.24" width="3.4" height="146.77"/><rect class="cls-1" x="500.23" y="319.24" width="3.4" height="146.77"/><rect class="cls-1" x="503.63" y="319.24" width="3.4" height="146.77"/><rect class="cls-1" x="507.03" y="319.24" width="3.4" height="146.77"/><rect class="cls-1" x="510.43" y="319.24" width="3.4" height="146.77"/><rect class="cls-1" x="513.82" y="319.24" width="3.4" height="146.77"/><rect class="cls-1" x="517.22" y="319.24" width="3.4" height="146.77"/><rect class="cls-1" x="520.62" y="319.24" width="3.4" height="146.77"/><rect class="cls-1" x="524.02" y="319.24" width="3.4" height="146.77"/><rect class="cls-1" x="527.41" y="319.24" width="3.4" height="146.77"/><rect class="cls-1" x="530.81" y="319.24" width="3.4" height="146.77"/><rect class="cls-1" x="534.21" y="319.24" width="3.4" height="146.77"/><rect class="cls-1" x="537.61" y="319.24" width="3.4" height="146.77"/><rect class="cls-1" x="541" y="319.24" width="3.4" height="146.77"/><rect class="cls-1" x="544.4" y="319.24" width="3.4" height="146.77"/><rect class="cls-1" x="547.8" y="319.24" width="3.4" height="146.77"/><rect class="cls-1" x="551.2" y="319.24" width="0.69" height="146.77"/></g><polygon class="cls-1" points="420.27 319 539.68 319.58 539.68 339.43 420.27 339.43 420.27 319"/><g class="cls-3"><rect class="cls-1" x="420.27" y="319" width="1.81" height="20.43"/><rect class="cls-1" x="422.09" y="319" width="3.4" height="20.43"/><rect class="cls-1" x="425.48" y="319" width="3.4" height="20.43"/><rect class="cls-1" x="428.88" y="319" width="3.4" height="20.43"/><rect class="cls-1" x="432.28" y="319" width="3.4" height="20.43"/><rect class="cls-1" x="435.68" y="319" width="3.4" height="20.43"/><rect class="cls-1" x="439.07" y="319" width="3.4" height="20.43"/><rect class="cls-1" x="442.47" y="319" width="3.4" height="20.43"/><rect class="cls-1" x="445.87" y="319" width="3.4" height="20.43"/><rect class="cls-1" x="449.27" y="319" width="3.4" height="20.43"/><rect class="cls-1" x="452.66" y="319" width="3.4" height="20.43"/><rect class="cls-1" x="456.06" y="319" width="3.4" height="20.43"/><rect class="cls-1" x="459.46" y="319" width="3.4" height="20.43"/><rect class="cls-1" x="462.86" y="319" width="3.4" height="20.43"/><rect class="cls-1" x="466.26" y="319" width="3.4" height="20.43"/><rect class="cls-1" x="469.65" y="319" width="3.4" height="20.43"/><rect class="cls-1" x="473.05" y="319" width="3.4" height="20.43"/><rect class="cls-1" x="476.45" y="319" width="3.4" height="20.43"/><rect class="cls-1" x="479.85" y="319" width="3.4" height="20.43"/><rect class="cls-1" x="483.24" y="319" width="3.4" height="20.43"/><rect class="cls-1" x="486.64" y="319" width="3.4" height="20.43"/><rect class="cls-1" x="490.04" y="319" width="3.4" height="20.43"/><rect class="cls-1" x="493.44" y="319" width="3.4" height="20.43"/><rect class="cls-1" x="496.83" y="319" width="3.4" height="20.43"/><rect class="cls-1" x="500.23" y="319" width="3.4" height="20.43"/><rect class="cls-1" x="503.63" y="319" width="3.4" height="20.43"/><rect class="cls-1" x="507.03" y="319" width="3.4" height="20.43"/><rect class="cls-1" x="510.43" y="319" width="3.4" height="20.43"/><rect class="cls-1" x="513.82" y="319" width="3.4" height="20.43"/><rect class="cls-1" x="517.22" y="319" width="3.4" height="20.43"/><rect class="cls-1" x="520.62" y="319" width="3.4" height="20.43"/><rect class="cls-1" x="524.02" y="319" width="3.4" height="20.43"/><rect class="cls-1" x="527.41" y="319" width="3.4" height="20.43"/><rect class="cls-1" x="530.81" y="319" width="3.4" height="20.43"/><rect class="cls-1" x="534.21" y="319" width="3.4" height="20.43"/><rect class="cls-1" x="537.61" y="319" width="2.07" height="20.43"/></g></g></svg>