<?xml version="1.0" encoding="utf-8"?>
<!-- Generator: Adobe Illustrator 24.0.1, SVG Export Plug-In . SVG Version: 6.00 Build 0)  -->
<svg version="1.1" id="Layer_1" xmlns="http://www.w3.org/2000/svg" xmlns:xlink="http://www.w3.org/1999/xlink" x="0px" y="0px"
	 viewBox="0 0 495.4 580.6" style="enable-background:new 0 0 495.4 580.6;" xml:space="preserve">
<style type="text/css">
	.st0{fill:#FFBB00;}
</style>
<title>logo</title>
<g>
	<polyline class="st0" points="418.7,141.3 247.7,264.8 0,88.9 0,0 247.7,175.9 495.4,0 495.4,85.9 	"/>
	<polyline class="st0" points="418.7,141.3 247.7,264.8 0,88.9 0,0 247.7,175.9 495.4,0 495.4,85.9 	"/>
	<polyline class="st0" points="418.7,141.3 247.7,264.8 0,88.9 0,0 247.7,175.9 495.4,0 495.4,85.9 	"/>
	<polygon class="st0" points="247.7,335.4 247.7,417.9 247.7,417.9 76.7,298.6 76.7,366.6 247.7,490.1 418.7,366.6 418.7,211.4 
		495.4,156.8 495.4,405.4 250.1,579 247.7,580.6 0,405.4 0,157.5 	"/>
	<polygon class="st0" points="247.7,335.4 247.7,417.9 247.7,417.9 76.7,298.6 76.7,366.6 247.7,490.1 418.7,366.6 418.7,211.4 
		495.4,156.8 495.4,405.4 250.1,579 247.7,580.6 0,405.4 0,157.5 	"/>
	<polygon class="st0" points="247.7,335.4 247.7,417.9 247.7,417.9 76.7,298.6 76.7,366.6 247.7,490.1 418.7,366.6 418.7,211.4 
		495.4,156.8 495.4,405.4 250.1,579 247.7,580.6 0,405.4 0,157.5 	"/>
	<polyline class="st0" points="418.7,141.3 247.7,264.8 0,88.9 0,0 247.7,175.9 495.4,0 495.4,85.9 	"/>
	<polyline class="st0" points="418.7,141.3 247.7,264.8 0,88.9 0,0 247.7,175.9 495.4,0 495.4,85.9 	"/>
	<polyline class="st0" points="418.7,141.3 247.7,264.8 0,88.9 0,0 247.7,175.9 495.4,0 495.4,85.9 	"/>
	<polyline class="st0" points="418.7,141.3 247.7,264.8 0,88.9 0,0 247.7,175.9 495.4,0 495.4,85.9 	"/>
	<polygon class="st0" points="247.7,335.4 247.7,417.9 247.7,417.9 76.7,298.6 76.7,366.6 247.7,490.1 418.7,366.6 418.7,211.4 
		495.4,156.8 495.4,405.4 250.1,579 247.7,580.6 0,405.4 0,157.5 	"/>
	<polygon class="st0" points="247.7,335.4 247.7,417.9 247.7,417.9 76.7,298.6 76.7,366.6 247.7,490.1 418.7,366.6 418.7,211.4 
		495.4,156.8 495.4,405.4 250.1,579 247.7,580.6 0,405.4 0,157.5 	"/>
	<polygon class="st0" points="247.7,335.4 247.7,417.9 247.7,417.9 76.7,298.6 76.7,366.6 247.7,490.1 418.7,366.6 418.7,211.4 
		495.4,156.8 495.4,405.4 250.1,579 247.7,580.6 0,405.4 0,157.5 	"/>
	<polygon class="st0" points="247.7,335.4 247.7,417.9 247.7,417.9 76.7,298.6 76.7,366.6 247.7,490.1 418.7,366.6 418.7,211.4 
		495.4,156.8 495.4,405.4 250.1,579 247.7,580.6 0,405.4 0,157.5 	"/>
	<polygon class="st0" points="0,40.9 0,131.6 76.8,186.8 76.8,93.3 	"/>
	<polygon class="st0" points="495.4,43.9 495.4,132.5 418.5,187.1 418.5,96.4 	"/>
	<polygon class="st0" points="170.9,296.9 170.9,385.5 247.7,438 247.7,349.3 	"/>
	<polyline class="st0" points="418.7,141.3 247.7,264.8 0,88.9 0,0 247.7,175.9 495.4,0 495.4,85.9 	"/>
	<polyline class="st0" points="418.7,141.3 247.7,264.8 0,88.9 0,0 247.7,175.9 495.4,0 495.4,85.9 	"/>
	<polyline class="st0" points="418.7,141.3 247.7,264.8 0,88.9 0,0 247.7,175.9 495.4,0 495.4,85.9 	"/>
	<polyline class="st0" points="418.7,141.3 247.7,264.8 0,88.9 0,0 247.7,175.9 495.4,0 495.4,85.9 	"/>
	<polygon class="st0" points="247.7,335.4 247.7,417.9 247.7,417.9 76.7,298.6 76.7,366.6 247.7,490.1 418.7,366.6 418.7,211.4 
		495.4,156.8 495.4,405.4 250.1,579 247.7,580.6 0,405.4 0,157.5 	"/>
	<polygon class="st0" points="247.7,335.4 247.7,417.9 247.7,417.9 76.7,298.6 76.7,366.6 247.7,490.1 418.7,366.6 418.7,211.4 
		495.4,156.8 495.4,405.4 250.1,579 247.7,580.6 0,405.4 0,157.5 	"/>
	<polygon class="st0" points="247.7,335.4 247.7,417.9 247.7,417.9 76.7,298.6 76.7,366.6 247.7,490.1 418.7,366.6 418.7,211.4 
		495.4,156.8 495.4,405.4 250.1,579 247.7,580.6 0,405.4 0,157.5 	"/>
	<polygon class="st0" points="247.7,335.4 247.7,417.9 247.7,417.9 76.7,298.6 76.7,366.6 247.7,490.1 418.7,366.6 418.7,211.4 
		495.4,156.8 495.4,405.4 250.1,579 247.7,580.6 0,405.4 0,157.5 	"/>
	<polyline class="st0" points="418.7,141.3 247.7,264.8 0,88.9 0,0 247.7,175.9 495.4,0 495.4,85.9 	"/>
	<polyline class="st0" points="418.7,141.3 247.7,264.8 0,88.9 0,0 247.7,175.9 495.4,0 495.4,85.9 	"/>
	<polyline class="st0" points="418.7,141.3 247.7,264.8 0,88.9 0,0 247.7,175.9 495.4,0 495.4,85.9 	"/>
	<polyline class="st0" points="418.7,141.3 247.7,264.8 0,88.9 0,0 247.7,175.9 495.4,0 495.4,85.9 	"/>
	<polygon class="st0" points="247.7,335.4 247.7,417.9 247.7,417.9 76.7,298.6 76.7,366.6 247.7,490.1 418.7,366.6 418.7,211.4 
		495.4,156.8 495.4,405.4 250.1,579 247.7,580.6 0,405.4 0,157.5 	"/>
	<polygon class="st0" points="247.7,335.4 247.7,417.9 247.7,417.9 76.7,298.6 76.7,366.6 247.7,490.1 418.7,366.6 418.7,211.4 
		495.4,156.8 495.4,405.4 250.1,579 247.7,580.6 0,405.4 0,157.5 	"/>
	<polygon class="st0" points="247.7,335.4 247.7,417.9 247.7,417.9 76.7,298.6 76.7,366.6 247.7,490.1 418.7,366.6 418.7,211.4 
		495.4,156.8 495.4,405.4 250.1,579 247.7,580.6 0,405.4 0,157.5 	"/>
	<polygon class="st0" points="247.7,335.4 247.7,417.9 247.7,417.9 76.7,298.6 76.7,366.6 247.7,490.1 418.7,366.6 418.7,211.4 
		495.4,156.8 495.4,405.4 250.1,579 247.7,580.6 0,405.4 0,157.5 	"/>
	<polyline class="st0" points="418.7,141.3 247.7,264.8 0,88.9 0,0 247.7,175.9 495.4,0 495.4,85.9 	"/>
	<polyline class="st0" points="418.7,141.3 247.7,264.8 0,88.9 0,0 247.7,175.9 495.4,0 495.4,85.9 	"/>
	<polyline class="st0" points="418.7,141.3 247.7,264.8 0,88.9 0,0 247.7,175.9 495.4,0 495.4,85.9 	"/>
	<polyline class="st0" points="418.7,141.3 247.7,264.8 0,88.9 0,0 247.7,175.9 495.4,0 495.4,85.9 	"/>
	<polygon class="st0" points="247.7,335.4 247.7,417.9 247.7,417.9 76.7,298.6 76.7,366.6 247.7,490.1 418.7,366.6 418.7,211.4 
		495.4,156.8 495.4,405.4 250.1,579 247.7,580.6 0,405.4 0,157.5 	"/>
	<polygon class="st0" points="247.7,335.4 247.7,417.9 247.7,417.9 76.7,298.6 76.7,366.6 247.7,490.1 418.7,366.6 418.7,211.4 
		495.4,156.8 495.4,405.4 250.1,579 247.7,580.6 0,405.4 0,157.5 	"/>
	<polygon class="st0" points="247.7,335.4 247.7,417.9 247.7,417.9 76.7,298.6 76.7,366.6 247.7,490.1 418.7,366.6 418.7,211.4 
		495.4,156.8 495.4,405.4 250.1,579 247.7,580.6 0,405.4 0,157.5 	"/>
	<polygon class="st0" points="247.7,335.4 247.7,417.9 247.7,417.9 76.7,298.6 76.7,366.6 247.7,490.1 418.7,366.6 418.7,211.4 
		495.4,156.8 495.4,405.4 250.1,579 247.7,580.6 0,405.4 0,157.5 	"/>
	<polygon class="st0" points="0,40.9 0,131.6 76.8,186.8 76.8,93.3 	"/>
	<polygon class="st0" points="495.4,43.9 495.4,132.5 418.5,187.1 418.5,96.4 	"/>
	<polygon class="st0" points="170.9,296.9 170.9,385.5 247.7,438 247.7,349.3 	"/>
</g>
</svg>
