<svg height="512pt" viewBox="0 -6 512 511" width="512pt" xmlns="http://www.w3.org/2000/svg"><path d="m447.28125 286.878906h-415.792969c-13.253906 0-24-10.746094-24-24v-230.890625c0-13.253906 10.746094-24 24-24h415.792969c13.253906 0 24 10.746094 24 24v230.890625c0 13.253906-10.746094 24-24 24zm0 0" fill="#fad200"/><path d="m444.453125 7.992188h-30.933594v216.492187c0 14.816406-12.011719 26.828125-26.828125 26.828125h-379.203125v8.742188c0 14.8125 12.011719 26.824218 26.828125 26.824218h410.140625c14.8125 0 26.824219-12.011718 26.824219-26.824218v-225.238282c0-14.816406-12.011719-26.824218-26.828125-26.824218zm0 0" fill="#fab700"/><path d="m167.34375 119.355469h-120.359375c-4.136719 0-7.492187-3.351563-7.492187-7.488281 0-4.136719 3.355468-7.492188 7.492187-7.492188h120.359375c4.136719 0 7.488281 3.355469 7.488281 7.492188 0 4.136718-3.351562 7.488281-7.488281 7.488281zm0 0" fill="#ff8900"/><path d="m204.957031 156.613281h-157.972656c-4.136719 0-7.492187-3.351562-7.492187-7.488281s3.355468-7.492188 7.492187-7.492188h157.972656c4.136719 0 7.488281 3.355469 7.488281 7.492188s-3.351562 7.488281-7.488281 7.488281zm0 0" fill="#ff8900"/><path d="m274.25 119.355469h-67.996094c-4.136718 0-7.488281-3.351563-7.488281-7.488281 0-4.136719 3.351563-7.492188 7.488281-7.492188h67.996094c4.136719 0 7.488281 3.355469 7.488281 7.492188 0 4.136718-3.351562 7.488281-7.488281 7.488281zm0 0" fill="#ff8900"/><path d="m48.03125 335.117188c-4.136719 0-7.488281-3.351563-7.488281-7.488282v-6.992187c0-4.136719 3.355469-7.488281 7.488281-7.488281 4.136719 0 7.492188 3.351562 7.492188 7.488281v6.992187c0 4.136719-3.351563 7.488282-7.492188 7.488282zm0-31.957032c-4.136719 0-7.488281-3.351562-7.488281-7.488281v-6.992187c0-4.136719 3.355469-7.492188 7.488281-7.492188 4.136719 0 7.492188 3.355469 7.492188 7.492188v6.992187c0 4.136719-3.351563 7.488281-7.492188 7.488281zm0-31.960937c-4.136719 0-7.488281-3.351563-7.488281-7.488281v-6.992188c0-4.136719 3.355469-7.488281 7.488281-7.488281 4.136719 0 7.492188 3.351562 7.492188 7.488281v6.992188c0 4.136718-3.351563 7.488281-7.492188 7.488281zm0-31.957031c-4.136719 0-7.488281-3.351563-7.488281-7.488282v-6.992187c0-4.136719 3.355469-7.488281 7.488281-7.488281 4.136719 0 7.492188 3.351562 7.492188 7.488281v6.992187c0 4.136719-3.351563 7.488282-7.492188 7.488282zm0-31.957032c-4.136719 0-7.488281-3.351562-7.488281-7.488281v-6.992187c0-4.136719 3.355469-7.492188 7.488281-7.492188 4.136719 0 7.492188 3.355469 7.492188 7.492188v6.992187c0 4.136719-3.351563 7.488281-7.492188 7.488281zm0 0" fill="#00a2ff"/><path d="m299.964844 430.621094c-4.136719 0-7.492188-3.351563-7.492188-7.488282v-6.992187c0-4.136719 3.355469-7.492187 7.492188-7.492187 4.136718 0 7.488281 3.355468 7.488281 7.492187v6.992187c0 4.136719-3.351563 7.488282-7.488281 7.488282zm0-31.960938c-4.136719 0-7.492188-3.351562-7.492188-7.488281v-6.992187c0-4.136719 3.355469-7.488282 7.492188-7.488282 4.136718 0 7.488281 3.351563 7.488281 7.488282v6.992187c0 4.136719-3.351563 7.488281-7.488281 7.488281zm0-31.957031c-4.136719 0-7.492188-3.351563-7.492188-7.488281v-6.992188c0-4.136718 3.355469-7.488281 7.492188-7.488281 4.136718 0 7.488281 3.351563 7.488281 7.488281v6.992188c0 4.136718-3.351563 7.488281-7.488281 7.488281zm0-31.957031c-4.136719 0-7.492188-3.351563-7.492188-7.488282v-6.992187c0-4.136719 3.355469-7.492187 7.492188-7.492187 4.136718 0 7.488281 3.355468 7.488281 7.492187v6.992187c0 4.136719-3.351563 7.488282-7.488281 7.488282zm0-31.960938c-4.136719 0-7.492188-3.351562-7.492188-7.488281v-6.992187c0-4.136719 3.355469-7.488282 7.492188-7.488282 4.136718 0 7.488281 3.351563 7.488281 7.488282v6.992187c0 4.136719-3.351563 7.488281-7.488281 7.488281zm0-31.957031c-4.136719 0-7.492188-3.351563-7.492188-7.488281v-6.992188c0-4.136718 3.355469-7.488281 7.492188-7.488281 4.136718 0 7.488281 3.351563 7.488281 7.488281v6.992188c0 4.136718-3.351563 7.488281-7.488281 7.488281zm0-31.957031c-4.136719 0-7.492188-3.355469-7.492188-7.492188v-6.988281c0-4.136719 3.355469-7.492187 7.492188-7.492187 4.136718 0 7.488281 3.355468 7.488281 7.492187v6.988281c0 4.136719-3.351563 7.492188-7.488281 7.492188zm0-31.960938c-4.136719 0-7.492188-3.351562-7.492188-7.488281v-6.992187c0-4.136719 3.355469-7.488282 7.492188-7.488282 4.136718 0 7.488281 3.351563 7.488281 7.488282v6.992187c0 4.136719-3.351563 7.488281-7.488281 7.488281zm0 0" fill="#00a2ff"/><path d="m385.054688 400.023438c-1.4375-1.441407-3.027344-2.675782-4.730469-3.730469-3.359375-3.28125-7.945313-5.3125-13.015625-5.3125-10.289063 0-18.628906 8.339843-18.628906 18.628906s8.339843 18.628906 18.628906 18.628906c.691406 0 1.367187-.042969 2.039062-.113281-3.777344 7.964844-9.296875 15.867188-16.433594 23.007812-6.921874 6.917969-14.5625 12.320313-22.277343 16.085938.015625-.335938.050781-.664062.050781-1.003906 0-10.289063-8.339844-18.628906-18.628906-18.628906-10.289063 0-18.628906 8.339843-18.628906 18.628906 0 4.664062 1.722656 8.914062 4.554687 12.183594 1.074219 1.757812 2.339844 3.394531 3.820313 4.875 15.203124 15.203124 46.164062 8.894531 69.15625-14.097657 22.988281-22.984375 29.300781-53.949219 14.09375-69.152343zm0 0" fill="#1dc2ff"/><path d="m385.054688 400.023438c-1.4375-1.441407-3.027344-2.675782-4.730469-3.730469-.195313-.191407-.414063-.363281-.617188-.550781 9.925781 16.300781 2.765625 43.5-17.960937 64.222656-20.660156 20.660156-47.753906 27.839844-64.066406 18.046875.101562.125.199218.261719.304687.386719 1.074219 1.757812 2.339844 3.394531 3.820313 4.875 15.203124 15.203124 46.167968 8.894531 69.15625-14.09375 22.988281-22.988282 29.300781-53.953126 14.09375-69.15625zm0 0" fill="#00a2ff"/><path d="m433.316406 78.195312c0 18.929688-22.460937 34.277344-54.300781 34.277344-31.84375 0-54.304687-15.347656-54.304687-34.277344 0-18.929687 22.460937-34.277343 54.304687-34.277343 31.839844 0 54.300781 15.347656 54.300781 34.277343zm0 0" fill="#ff8900"/><path d="m130.523438 395.484375c0 28.273437-22.921876 51.195313-51.195313 51.195313-28.269531 0-51.191406-22.921876-51.191406-51.195313 0-28.269531 22.921875-51.191406 51.191406-51.191406 28.273437 0 51.195313 22.921875 51.195313 51.191406zm0 0" fill="#32e4ff"/><path d="m413.519531 51.339844v53.710937c12.363281-6.277343 19.796875-15.972656 19.796875-26.855469 0-10.882812-7.433594-20.578124-19.796875-26.855468zm0 0" fill="#ff6914"/><g fill="#00a2ff"><path d="m240.871094 383.824219h-80.566406c-4.136719 0-7.488282-3.351563-7.488282-7.488281 0-4.136719 3.355469-7.488282 7.488282-7.488282h80.566406c4.136718 0 7.488281 3.351563 7.488281 7.488282 0 4.136718-3.351563 7.488281-7.488281 7.488281zm0 0"/><path d="m241.28125 421.082031h-80.976562c-4.136719 0-7.488282-3.351562-7.488282-7.488281s3.355469-7.492188 7.488282-7.492188h80.976562c4.140625 0 7.492188 3.355469 7.492188 7.492188s-3.351563 7.488281-7.492188 7.488281zm0 0"/><path d="m504.097656 429.238281h-80.566406c-4.136719 0-7.488281-3.351562-7.488281-7.492187 0-4.136719 3.351562-7.488282 7.488281-7.488282h80.566406c4.136719 0 7.488282 3.351563 7.488282 7.488282 0 4.140625-3.351563 7.492187-7.488282 7.492187zm0 0"/><path d="m504.511719 466.496094h-80.980469c-4.136719 0-7.488281-3.351563-7.488281-7.488282 0-4.140624 3.355469-7.492187 7.488281-7.492187h80.980469c4.136719 0 7.488281 3.351563 7.488281 7.492187 0 4.136719-3.355469 7.488282-7.488281 7.488282zm0 0"/><path d="m79.328125 344.292969c-.132813 0-.261719.011719-.394531.011719v102.363281c.132812.003906.261718.011719.394531.011719 28.273437 0 51.195313-22.921876 51.195313-51.191407 0-28.273437-22.921876-51.195312-51.195313-51.195312zm0 0"/></g><path d="m99.226562 395.484375c0 28.273437-19.898437 51.195313-19.898437 51.195313s-21.011719-22.921876-21.011719-51.195313c0-28.269531 21.011719-51.191406 21.011719-51.191406s19.898437 22.921875 19.898437 51.191406zm0 0" fill="#1dc2ff"/><path d="m173.335938 119.355469h-126.351563c-4.136719 0-7.492187-3.351563-7.492187-7.488281 0-4.136719 3.355468-7.492188 7.492187-7.492188h126.351563c4.136718 0 7.488281 3.355469 7.488281 7.492188 0 4.136718-3.351563 7.488281-7.488281 7.488281zm0 0"/><path d="m231.035156 156.613281h-184.050781c-4.136719 0-7.492187-3.351562-7.492187-7.488281s3.355468-7.492188 7.492187-7.492188h184.050781c4.140625 0 7.492188 3.355469 7.492188 7.492188s-3.351563 7.488281-7.492188 7.488281zm0 0"/><path d="m240.871094 383.824219h-80.566406c-4.136719 0-7.488282-3.351563-7.488282-7.488281 0-4.136719 3.355469-7.488282 7.488282-7.488282h80.566406c4.136718 0 7.488281 3.351563 7.488281 7.488282 0 4.136718-3.351563 7.488281-7.488281 7.488281zm0 0"/><path d="m241.28125 421.082031h-80.976562c-4.136719 0-7.488282-3.351562-7.488282-7.488281s3.355469-7.492188 7.488282-7.492188h80.976562c4.140625 0 7.492188 3.355469 7.492188 7.492188s-3.351563 7.488281-7.492188 7.488281zm0 0"/><path d="m504.097656 429.238281h-80.566406c-4.136719 0-7.488281-3.351562-7.488281-7.492187 0-4.136719 3.351562-7.488282 7.488281-7.488282h80.566406c4.136719 0 7.488282 3.351563 7.488282 7.488282 0 4.140625-3.351563 7.492187-7.488282 7.492187zm0 0"/><path d="m504.511719 466.496094h-80.980469c-4.136719 0-7.488281-3.351563-7.488281-7.488282 0-4.140624 3.355469-7.492187 7.488281-7.492187h80.980469c4.136719 0 7.488281 3.351563 7.488281 7.492187 0 4.136719-3.355469 7.488282-7.488281 7.488282zm0 0"/><path d="m274.25 119.355469h-67.996094c-4.136718 0-7.488281-3.351563-7.488281-7.488281 0-4.136719 3.351563-7.492188 7.488281-7.492188h67.996094c4.136719 0 7.488281 3.355469 7.488281 7.492188 0 4.136718-3.351562 7.488281-7.488281 7.488281zm0 0"/><path d="m323.75 499.066406c-10.894531 0-20.332031-3.585937-27.242188-10.496094-1.71875-1.714843-3.261718-3.648437-4.597656-5.753906-3.855468-4.675781-5.972656-10.546875-5.972656-16.597656 0-14.402344 11.71875-26.121094 26.121094-26.121094 10.597656 0 19.738281 6.34375 23.832031 15.433594 4.128906-2.789062 8.089844-6.058594 11.726563-9.695312 3.722656-3.722657 7.054687-7.78125 9.886718-12.015626-9.558594-3.882812-16.3125-13.273437-16.3125-24.207031 0-14.402343 11.714844-26.121093 26.117188-26.121093 6.578125 0 12.804687 2.433593 17.636718 6.867187 1.972657 1.285156 3.785157 2.75 5.402344 4.367187h.003906c9.1875 9.1875 12.496094 22.84375 9.316407 38.453126-2.949219 14.484374-11.265625 29.148437-23.410157 41.296874-12.148437 12.144532-26.816406 20.460938-41.300781 23.414063-3.867187.785156-7.617187 1.175781-11.207031 1.175781zm-11.691406-43.988281c-6.144532 0-11.136719 4.996094-11.136719 11.136719 0 3.414062 1.480469 5.84375 2.722656 7.277344.273438.316406.519531.652343.734375 1.003906.789063 1.292968 1.703125 2.464844 2.71875 3.480468 12.054688 12.050782 38.875 5.597657 58.566406-14.09375 19.691407-19.691406 26.148438-46.511718 14.09375-58.5625-.984374-.984374-2.121093-1.878906-3.375-2.65625-.46875-.289062-.902343-.628906-1.296874-1.011718-2.09375-2.050782-4.855469-3.179688-7.777344-3.179688-6.140625 0-11.136719 4.996094-11.136719 11.140625 0 6.140625 4.996094 11.136719 11.136719 11.136719.382812 0 .78125-.023438 1.222656-.070312 2.695312-.296876 5.34375.890624 6.917969 3.101562s1.828125 5.101562.664062 7.550781c-4.238281 8.945313-10.429687 17.625-17.902343 25.097657-7.351563 7.347656-15.523438 13.246093-24.292969 17.519531-2.386719 1.164062-5.210938.976562-7.421875-.488281-2.214844-1.46875-3.484375-3.996094-3.339844-6.648438l.039062-.644531c0-6.09375-4.996093-11.089844-11.136718-11.089844zm0 0"/><path d="m444.457031.5h-410.140625c-18.921875 0-34.316406 15.394531-34.316406 34.316406v225.234375c0 18.921875 15.394531 34.316407 34.316406 34.316407h6.226563v1.304687c0 4.136719 3.355469 7.488281 7.488281 7.488281 4.136719 0 7.492188-3.351562 7.492188-7.488281v-1.304687h236.949218v.929687c0 4.136719 3.355469 7.488281 7.492188 7.488281 4.136718 0 7.488281-3.351562 7.488281-7.488281v-.929687h51.003906c4.136719 0 7.492188-3.351563 7.492188-7.488282 0-4.136718-3.355469-7.492187-7.492188-7.492187h-324.140625c-10.660156 0-19.335937-8.671875-19.335937-19.332031v-225.238282c0-10.664062 8.675781-19.335937 19.335937-19.335937h410.140625c10.660157 0 19.332031 8.671875 19.332031 19.335937v225.234375c0 10.664063-8.671874 19.335938-19.332031 19.335938h-52.636719c-4.136718 0-7.492187 3.351562-7.492187 7.492187 0 4.136719 3.355469 7.488282 7.492187 7.488282h52.636719c18.921875 0 34.316407-15.394532 34.316407-34.316407v-225.234375c-.003907-18.921875-15.394532-34.316406-34.316407-34.316406zm0 0"/><path d="m48.03125 313.148438c-4.136719 0-7.488281 3.351562-7.488281 7.488281v6.992187c0 4.136719 3.355469 7.488282 7.488281 7.488282 4.136719 0 7.492188-3.351563 7.492188-7.488282v-6.992187c0-4.136719-3.351563-7.488281-7.492188-7.488281zm0 0"/><path d="m48.03125 249.230469c-4.136719 0-7.488281 3.351562-7.488281 7.488281v6.992188c0 4.136718 3.355469 7.488281 7.488281 7.488281 4.136719 0 7.492188-3.351563 7.492188-7.488281v-6.992188c0-4.136719-3.351563-7.488281-7.492188-7.488281zm0 0"/><path d="m55.523438 192.804688c0-4.140626-3.355469-7.492188-7.492188-7.492188-4.132812 0-7.488281 3.351562-7.488281 7.492188v6.988281c0 4.136719 3.355469 7.492187 7.488281 7.492187 4.136719 0 7.492188-3.355468 7.492188-7.492187zm0 0"/><path d="m55.523438 224.761719c0-4.136719-3.355469-7.488281-7.492188-7.488281-4.132812 0-7.488281 3.351562-7.488281 7.488281v6.992187c0 4.136719 3.355469 7.488282 7.488281 7.488282 4.136719 0 7.492188-3.351563 7.492188-7.488282zm0 0"/><path d="m299.964844 376.691406c-4.136719 0-7.492188 3.351563-7.492188 7.488282v6.992187c0 4.136719 3.355469 7.488281 7.492188 7.488281 4.136718 0 7.488281-3.351562 7.488281-7.488281v-6.992187c0-4.136719-3.351563-7.488282-7.488281-7.488282zm0 0"/><path d="m299.964844 408.648438c-4.136719 0-7.492188 3.355468-7.492188 7.492187v6.988281c0 4.136719 3.355469 7.492188 7.492188 7.492188 4.136718 0 7.488281-3.355469 7.488281-7.492188v-6.988281c0-4.136719-3.351563-7.492187-7.488281-7.492187zm0 0"/><path d="m299.964844 344.734375c-4.136719 0-7.492188 3.351563-7.492188 7.488281v6.992188c0 4.136718 3.355469 7.488281 7.492188 7.488281 4.136718 0 7.488281-3.351563 7.488281-7.488281v-6.992188c0-4.136718-3.351563-7.488281-7.488281-7.488281zm0 0"/><path d="m307.453125 192.429688c0-4.136719-3.351563-7.488282-7.488281-7.488282-4.136719 0-7.492188 3.351563-7.492188 7.488282v6.992187c0 4.136719 3.355469 7.488281 7.492188 7.488281 4.136718 0 7.488281-3.351562 7.488281-7.488281zm0 0"/><path d="m299.964844 312.773438c-4.136719 0-7.492188 3.355468-7.492188 7.492187v6.988281c0 4.136719 3.355469 7.492188 7.492188 7.492188 4.136718 0 7.488281-3.355469 7.488281-7.492188v-6.988281c0-4.136719-3.351563-7.492187-7.488281-7.492187zm0 0"/><path d="m299.964844 248.855469c-4.136719 0-7.492188 3.355469-7.492188 7.492187v6.992188c0 4.136718 3.355469 7.488281 7.492188 7.488281 4.136718 0 7.488281-3.351563 7.488281-7.488281v-6.992188c0-4.136718-3.351563-7.492187-7.488281-7.492187zm0 0"/><path d="m307.453125 224.390625c0-4.136719-3.351563-7.492187-7.488281-7.492187-4.136719 0-7.492188 3.355468-7.492188 7.492187v6.988281c0 4.136719 3.355469 7.492188 7.492188 7.492188 4.136718 0 7.488281-3.355469 7.488281-7.492188zm0 0"/><path d="m379.015625 119.964844c-35.230469 0-61.792969-17.957032-61.792969-41.769532s26.5625-41.765624 61.792969-41.765624c35.226563 0 61.792969 17.953124 61.792969 41.765624s-26.566406 41.769532-61.792969 41.769532zm0-68.558594c-26.25 0-46.8125 11.769531-46.8125 26.789062 0 15.019532 20.5625 26.785157 46.8125 26.785157s46.8125-11.765625 46.8125-26.785157c0-15.019531-20.5625-26.789062-46.8125-26.789062zm0 0"/><path d="m138.011719 395.488281c0-32.3125-26.246094-58.605469-58.542969-58.679687-.011719 0-.023438-.003906-.039062-.003906-.007813 0-.019532 0-.03125 0-.023438 0-.046876 0-.070313 0-32.355469 0-58.679687 26.324218-58.679687 58.679687 0 32.359375 26.324218 58.683594 58.679687 58.683594h.101563c.011718 0 .027343-.003907.039062-.003907 32.292969-.074218 58.542969-26.367187 58.542969-58.675781zm-58.851563 38.628907c-5.613281-8.316407-13.351562-22.679688-13.351562-38.628907 0-15.957031 7.738281-30.316406 13.347656-38.632812 5.320312 8.359375 12.578125 22.695312 12.578125 38.632812s-7.261719 30.273438-12.574219 38.628907zm-43.53125-38.628907c0-18.160156 11.136719-33.765625 26.9375-40.355469-5.832031 10.164063-11.742187 24.390626-11.742187 40.355469 0 15.960938 5.910156 30.1875 11.738281 40.351563-15.796875-6.589844-26.933594-22.191406-26.933594-40.351563zm59.773438 40.625c5.582031-10.164062 11.3125-24.519531 11.3125-40.628906 0-16.105469-5.730469-30.460937-11.3125-40.625 16.164062 6.417969 27.628906 22.203125 27.628906 40.625 0 18.425781-11.464844 34.210937-27.628906 40.628906zm0 0"/></svg>