<svg id="Capa_1" enable-background="new 0 0 512 512" height="512" viewBox="0 0 512 512" width="512" xmlns="http://www.w3.org/2000/svg"><path d="m512 155.39c0-12.803-4.986-24.839-14.041-33.894-18.243-18.231-47.65-18.655-66.423-1.282-10.242-5.813-23.519-4.366-32.24 4.355-8.709 8.709-10.164 21.962-4.379 32.197l-75.038 75.038v-112.234h48.035c4.143 0 7.5-3.357 7.5-7.5s-3.357-7.5-7.5-7.5h-48.035v-38.319c0-4.143-3.357-7.5-7.5-7.5s-7.5 3.357-7.5 7.5v38.319h-177.863c-4.142 0-7.5 3.357-7.5 7.5s3.358 7.5 7.5 7.5h32.729l-88.951 51.308c-.09.052-.174.111-.263.164v-51.472h26.484c4.142 0 7.5-3.357 7.5-7.5s-3.358-7.5-7.5-7.5h-26.483v-38.316c0-4.143-3.358-7.5-7.5-7.5s-7.5 3.357-7.5 7.5v38.316h-48.032c-4.142 0-7.5 3.357-7.5 7.5s3.358 7.5 7.5 7.5h48.032v272.86h-48.032c-4.142 0-7.5 3.357-7.5 7.5s3.358 7.5 7.5 7.5h48.032v38.316c0 4.143 3.358 7.5 7.5 7.5s7.5-3.357 7.5-7.5v-38.316h186.316c4.142 0 7.5-3.357 7.5-7.5s-3.357-7.5-7.5-7.5h-41.179l31.632-18.25c3.252 2.78 7.284 4.259 11.43 4.259 2.008 0 4.04-.344 6.021-1.05l40.127-14.298v29.339h-18.031c-4.143 0-7.5 3.357-7.5 7.5s3.357 7.5 7.5 7.5h18.031v38.319c0 4.143 3.357 7.5 7.5 7.5s7.5-3.357 7.5-7.5v-38.319h48.035c4.143 0 7.5-3.357 7.5-7.5s-3.357-7.5-7.5-7.5h-48.035v-34.684l13.342-4.754c.003-.001.006-.003.01-.004.243-.087.481-.188.713-.299.055-.027.109-.057.163-.085.169-.086.335-.178.497-.277.072-.043.142-.088.212-.134.152-.1.299-.205.443-.316.057-.044.116-.085.173-.131.193-.157.38-.323.557-.499.006-.006.012-.01.018-.016l126.687-126.687c4.085 2.309 8.649 3.47 13.215 3.47 6.874 0 13.749-2.616 18.982-7.85 8.721-8.722 10.168-21.999 4.355-32.241 8.234-8.878 12.754-20.355 12.754-32.533zm-24.646-23.286c6.221 6.22 9.646 14.489 9.646 23.285 0 7.844-2.73 15.262-7.733 21.186l-46.381-46.381c12.924-10.875 32.308-10.244 44.468 1.91zm-199.337 221.071-21.731-21.731 12.792-35.903c6.617-.687 11.316.176 13.699 2.558 2.864 2.864 3.541 9.063 1.958 17.924-.008.042-.008.084-.015.127-.035.22-.062.442-.078.664-.006.089-.01.178-.013.267-.007.195-.005.39.003.585.204 4.629 4.439 7.842 8.803 7.059 8.865-1.584 15.063-.905 17.926 1.959 2.383 2.384 3.246 7.083 2.559 13.698zm43.952-37.097c-3.068-3.068-6.995-5.15-11.732-6.246l66.89-66.89c2.929-2.93 2.929-7.678 0-10.607-2.93-2.928-7.678-2.928-10.607 0l-66.888 66.888c-1.096-4.74-3.178-8.661-6.247-11.73-3.07-3.069-7.001-5.142-11.742-6.237l113.187-113.188 17.978 17.978-21.802 21.802c-2.929 2.93-2.929 7.678 0 10.607 2.931 2.929 7.678 2.928 10.607 0l21.802-21.802 17.978 17.978-113.188 113.188c-1.095-4.741-3.167-8.672-6.236-11.741zm-27.09-196.508v51.525c-.07-.041-.136-.088-.207-.129l-88.94-51.396zm-234.319 77.66c.007-5.487 2.975-10.609 7.738-13.363l101.75-58.69c4.758-2.745 10.666-2.741 15.42.008l101.697 58.768c4.759 2.753 7.715 7.875 7.715 13.368v49.484l-33.068 33.068v-54.832c.004-10.839-5.816-20.938-15.19-26.356l-53.666-31.01c-9.38-5.423-21.04-5.426-30.426-.013l-53.69 30.971c-9.393 5.418-15.23 15.512-15.235 26.346v61.98c-.004 10.839 5.816 20.938 15.19 26.355l53.666 31.011c4.694 2.714 9.958 4.07 15.223 4.07 5.256 0 10.514-1.354 15.203-4.058l53.69-30.97c.1-.057.193-.123.292-.181l-14.794 41.522c-.676 1.898-1.01 3.843-1.038 5.77l-45.659 26.342c-4.766 2.744-10.68 2.745-15.434-.005l-101.699-58.767c-4.747-2.746-7.691-7.864-7.685-13.368zm186.251 27.808v61.98c-.002 5.489-2.964 10.606-7.73 13.355l-53.69 30.971c-4.759 2.744-10.669 2.743-15.425-.007l-53.666-31.011c-4.75-2.745-7.698-7.865-7.696-13.365v-61.98c.002-5.489 2.964-10.606 7.73-13.355l53.69-30.971c2.378-1.371 5.042-2.057 7.708-2.057 2.669 0 5.338.688 7.718 2.063l53.666 31.01c4.748 2.746 7.697 7.866 7.695 13.367zm-186.279 167.392v-51.523c.07.041.135.087.205.128l88.939 51.396h-89.144zm189.186-29.171c-1.422.506-2.41-.187-2.87-.646-.459-.46-1.154-1.443-.646-2.869l4.51-12.659 11.663 11.663zm224.566-153.701c-4.617 4.619-12.133 4.619-16.75 0l-.23-.23-57.17-57.17-.23-.23c-4.618-4.618-4.618-12.132 0-16.75 2.309-2.31 5.342-3.464 8.375-3.464s6.066 1.154 8.375 3.464l57.631 57.631c4.617 4.617 4.617 12.13-.001 16.749z"/></svg>